<svg width="24" height="24" viewBox="0 0 24 24" fill="none" xmlns="http://www.w3.org/2000/svg">
<path d="M7.67992 22.0799H16.3199C19.5009 22.0799 22.0799 19.5009 22.0799 16.3199V7.67992C22.0799 4.49896 19.5009 1.91992 16.3199 1.91992H7.67992C4.49896 1.91992 1.91992 4.49896 1.91992 7.67992V16.3199C1.91992 19.5009 4.49896 22.0799 7.67992 22.0799Z" stroke="currentColor" stroke-width="1.5" stroke-miterlimit="10" />
<path d="M11.9992 7.19995C10.7262 7.19995 9.50528 7.70566 8.60511 8.60584C7.70493 9.50601 7.19922 10.7269 7.19922 12C7.19922 13.273 7.70493 14.4939 8.60511 15.3941C9.50528 16.2942 10.7262 16.7999 11.9992 16.7999C13.2723 16.7999 14.4932 16.2942 15.3933 15.3941C16.2935 14.4939 16.7992 13.273 16.7992 12C16.7992 10.7269 16.2935 9.50601 15.3933 8.60584C14.4932 7.70566 13.2723 7.19995 11.9992 7.19995Z" stroke="currentColor" stroke-width="1.5" stroke-miterlimit="10" />
<path d="M17.7608 5.28003C17.5062 5.28003 17.262 5.38117 17.082 5.56121C16.9019 5.74124 16.8008 5.98542 16.8008 6.24003C16.8008 6.49464 16.9019 6.73882 17.082 6.91885C17.262 7.09889 17.5062 7.20003 17.7608 7.20003C18.0154 7.20003 18.2596 7.09889 18.4396 6.91885C18.6196 6.73882 18.7208 6.49464 18.7208 6.24003C18.7208 5.98542 18.6196 5.74124 18.4396 5.56121C18.2596 5.38117 18.0154 5.28003 17.7608 5.28003Z" fill="currentColor" />
</svg>
