<svg width="106" height="108" viewBox="0 0 106 108" fill="none" xmlns="http://www.w3.org/2000/svg">
<path fill-rule="evenodd" clip-rule="evenodd" d="M52.5079 8.60221C40.5431 8.83036 29.1455 13.7322 20.7648 22.2541C12.3841 30.7761 7.68919 42.2379 7.68919 54.1762C7.68919 66.1145 12.3841 77.5764 20.7648 86.0984C29.1455 94.6203 40.5431 99.5221 52.5079 99.7502L52.361 107.42C38.3827 107.153 25.0671 101.426 15.276 91.4703C5.48495 81.5143 0 68.1236 0 54.1762C0 40.2289 5.48495 26.8382 15.276 16.8821C25.0671 6.92609 38.3827 1.1994 52.361 0.932861L52.5079 8.60221Z" fill="white"/>
<path d="M65.2436 2.37666L64.1294 7.65554L63.9143 7.61035L62.0708 1.71023L60.0703 1.29004L58.4534 8.95085L59.9162 9.25808L61.0303 3.97921L61.2454 4.02439L63.0889 9.92451L65.0894 10.3447L66.7063 2.6839L65.2436 2.37666Z" fill="white"/>
<path d="M70.1523 3.87158L67.4233 11.2117L68.9588 11.7799L71.6878 4.43972L70.1523 3.87158Z" fill="white"/>
<path d="M79.6888 8.31154L77.0861 13.0402L76.8934 12.9347L76.8467 6.75476L75.0547 5.77319L71.2777 12.6356L72.5879 13.3533L75.1906 8.62458L75.3833 8.73012L75.4301 14.9101L77.222 15.8916L80.999 9.02925L79.6888 8.31154Z" fill="white"/>
<path d="M81.3694 17.1921L82.5512 15.7737L85.0478 17.8438L85.9622 16.7462L83.4656 14.6761L84.5208 13.4097L87.7283 16.0693L88.6638 14.9464L84.1953 11.2412L79.1729 17.2694L83.7345 21.0517L84.67 19.9288L81.3694 17.1921Z" fill="white"/>
<path d="M95.7331 26.8371C96.7706 25.881 96.816 24.4245 95.8407 23.0656C94.6932 21.467 93.2304 21.249 92.1888 21.9931C91.2006 22.699 91.0428 23.7925 91.5876 24.908L92.2881 26.3154C92.5649 26.87 92.526 27.3412 92.1076 27.6401C91.609 27.9962 90.9787 27.7747 90.4368 27.0198C89.946 26.336 89.7618 25.554 90.3594 24.9793L89.3904 23.6293C88.246 24.6618 88.1435 26.2263 89.2845 27.8161C90.4766 29.4769 92.0222 29.7164 93.1083 28.9405C94.2123 28.1519 94.2491 26.9836 93.6927 25.7957L93.0662 24.5101C92.8149 23.991 92.7889 23.5797 93.1717 23.3062C93.6347 22.9755 94.1912 23.1691 94.6948 23.8708C95.1474 24.5013 95.1684 25.0372 94.7641 25.4872L95.7331 26.8371Z" fill="white"/>
<path d="M94.4415 33.1349L96.111 32.348L97.4961 35.2725L98.788 34.6636L97.4029 31.739L98.8935 31.0364L100.673 34.7937L101.995 34.1708L99.5156 28.9363L92.4202 32.2807L94.951 37.6243L96.2727 37.0013L94.4415 33.1349Z" fill="white"/>
<path d="M104.765 43.5788L99.5056 44.8336L99.4544 44.6203L104.011 40.433L103.535 38.4495L95.9028 40.2704L96.2505 41.7207L101.51 40.4659L101.561 40.6792L97.0046 44.8666L97.4802 46.8501L105.113 45.0291L104.765 43.5788Z" fill="white"/>
<path d="M103.697 55.7989C105.099 55.5861 105.957 54.4005 105.913 52.7235C105.86 50.7506 104.766 49.7487 103.481 49.7829C102.261 49.8154 101.514 50.636 101.338 51.8692L101.127 53.4324C101.044 54.0488 100.746 54.4187 100.23 54.4325C99.6147 54.4489 99.2154 53.9111 99.1905 52.9794C99.1679 52.1354 99.4556 51.3819 100.276 51.2394L100.232 49.5733C98.6983 49.7897 97.731 51.033 97.7836 52.9949C97.8384 55.0446 98.9885 56.1108 100.329 56.0751C101.691 56.0388 102.381 55.0881 102.588 53.7883L102.791 52.3679C102.875 51.7953 103.085 51.4387 103.558 51.4261C104.129 51.4109 104.483 51.8841 104.506 52.75C104.527 53.5282 104.242 53.9855 103.652 54.1329L103.697 55.7989Z" fill="white"/>
<path d="M98.939 60.9239L100.76 61.2289L100.223 64.4188L101.632 64.6548L102.169 61.4649L103.795 61.7372L103.105 65.8354L104.547 66.0769L105.508 60.3674L97.7685 59.0713L96.7877 64.8997L98.2293 65.1411L98.939 60.9239Z" fill="white"/>
<path d="M99.2535 75.1373C100.631 75.4705 101.877 74.6983 102.472 73.1295C103.173 71.2839 102.542 69.9432 101.34 69.4887C100.199 69.0575 99.1953 69.5341 98.5639 70.6087L97.7745 71.9753C97.464 72.5146 97.0477 72.7441 96.5646 72.5616C95.989 72.344 95.824 71.6954 96.155 70.8238C96.4548 70.0343 97.0074 69.4459 97.8211 69.6244L98.413 68.0659C96.9117 67.6861 95.5442 68.4707 94.8472 70.3061C94.119 72.2235 94.778 73.6451 96.0319 74.119C97.3064 74.6007 98.3054 73.9817 98.991 72.8572L99.7195 71.62C100.014 71.1218 100.345 70.8714 100.787 71.0384C101.321 71.2404 101.468 71.812 101.161 72.622C100.884 73.35 100.447 73.6655 99.8453 73.5788L99.2535 75.1373Z" fill="white"/>
<path d="M90.0812 84.0142C89.576 83.4407 89.5529 82.7304 90.0533 82.0495C90.8852 80.9177 92.2123 81.0591 93.3823 81.9149C94.5523 82.7707 95.0866 83.9909 94.2547 85.1227C93.7803 85.7682 93.2308 85.9781 92.5973 85.7459L91.5835 87.1253C92.9006 87.7624 94.4067 87.3821 95.4336 85.985C96.8439 84.0662 96.3178 81.9819 94.3767 80.562C92.4356 79.1421 90.2913 79.2596 88.8745 81.1872C87.7891 82.6639 87.9517 84.2784 89.0739 85.3848L90.0812 84.0142Z" fill="white"/>
<path d="M85.6526 87.4145L90.0481 91.9902L91.2305 90.8599L85.8008 85.2075L81.6188 89.2055L82.653 90.2821L85.6526 87.4145Z" fill="white"/>
<path d="M84.8164 96.5627L80.1397 90.276L78.8246 91.2497L83.5013 97.5364L84.8164 96.5627Z" fill="white"/>
<path d="M75.6572 102.228L73.1244 97.4621L73.3186 97.3594L78.5219 100.713L80.3281 99.7581L76.6524 92.8412L75.3317 93.5396L77.8646 98.3059L77.6704 98.4086L72.467 95.0547L70.6608 96.0099L74.3366 102.927L75.6572 102.228Z" fill="white"/>
<path d="M70.9336 104.208L68.314 96.8283L66.7703 97.3736L69.3899 104.753L70.9336 104.208Z" fill="white"/>
<path d="M60.0619 101.637C60.074 100.874 60.5354 100.332 61.3648 100.163C62.7435 99.8824 63.6313 100.877 63.9215 102.295C64.2116 103.714 63.7854 104.976 62.4067 105.256C61.6204 105.416 61.072 105.204 60.7591 104.607L59.0788 104.949C59.6253 106.304 60.9972 107.032 62.6991 106.686C65.0364 106.21 66.0509 104.313 65.5695 101.96C65.0881 99.6065 63.4205 98.2559 61.0724 98.734C59.2736 99.1002 58.3064 100.405 58.3923 101.977L60.0619 101.637Z" fill="white"/>
</svg>

