<svg width="24" height="24" viewBox="0 0 24 24" fill="none" xmlns="http://www.w3.org/2000/svg">
<path d="M9.16333 7.21126C8.93341 6.6655 8.69965 6.73942 8.52541 6.73078C8.36029 6.7231 8.17165 6.7207 7.98253 6.7207C7.79341 6.7207 7.48669 6.79078 7.22653 7.0711C6.96637 7.35142 6.23438 8.02822 6.23438 9.40582C6.23438 10.7834 7.25005 12.1135 7.39165 12.3007C7.53373 12.4874 9.39037 15.3141 12.2334 16.5266C12.9097 16.8146 13.4377 16.9869 13.8491 17.1161C14.5278 17.3292 15.146 17.2989 15.6347 17.2269C16.179 17.1468 17.3118 16.5497 17.548 15.8964C17.7841 15.2426 17.7841 14.6825 17.7131 14.5658C17.642 14.4492 17.4529 14.3791 17.1697 14.2389C16.8865 14.0988 15.4926 13.4215 15.2324 13.3289C14.9723 13.2353 14.7836 13.1887 14.5945 13.469C14.4054 13.7493 13.8625 14.3791 13.6974 14.5663C13.5323 14.753 13.3667 14.7765 13.0835 14.6364C12.8003 14.4962 11.8864 14.201 10.8045 13.2473C9.96157 12.5052 9.39277 11.5889 9.22765 11.3085C9.06253 11.0282 9.20989 10.877 9.35197 10.7373C9.47965 10.6116 9.63517 10.4105 9.77725 10.2468C9.91933 10.0831 9.96637 9.96646 10.0605 9.77974C10.1545 9.59302 10.1075 9.42934 10.0365 9.28918C9.96637 9.14902 9.39949 7.7719 9.16333 7.21126Z" stroke="currentColor" stroke-miterlimit="10"/>
<path d="M12.0014 1.44116C6.16941 1.44116 1.44141 6.16916 1.44141 12.0012C1.44141 13.9557 1.97469 15.7855 2.90061 17.3556L1.44141 22.5612L6.85293 21.2205C8.37645 22.073 10.1313 22.5612 12.0014 22.5612C17.8334 22.5612 22.5614 17.8332 22.5614 12.0012C22.5614 6.16916 17.8334 1.44116 12.0014 1.44116Z" stroke="currentColor" stroke-miterlimit="10" stroke-linejoin="round"/>
</svg>
