<svg width="385" height="432" viewBox="0 0 385 432" fill="none" xmlns="http://www.w3.org/2000/svg"><path d="M301.444 112.619l-6.257-15.836-5.293 9.257-5.272-9.257-6.279 15.836H276.5v2.401h9.472v-2.401h-1.414l1.371-3.943 3.965 6.515 3.964-6.515 1.372 3.943h-1.415v2.401h9.472v-2.401h-1.843zM92.443 360.687l-6.257-15.836-5.293 9.257-5.272-9.257-6.279 15.836h-1.843v2.4h9.472v-2.4h-1.414l1.371-3.943 3.965 6.515 3.964-6.515 1.372 3.943h-1.415v2.4h9.472v-2.4h-1.843z" fill="#B6B0B8"/><path d="M239.849 126.242h2.34l4.05 10.8 4.068-10.8h2.34v12.852h-1.62v-10.692h-.036l-4.014 10.692h-1.458l-4.014-10.692h-.036v10.692h-1.62v-12.852zm18.146 13.05a4.74 4.74 0 01-1.188-.144 2.734 2.734 0 01-.99-.432 2.44 2.44 0 01-.666-.81c-.156-.336-.234-.738-.234-1.206 0-.528.09-.96.27-1.296a2.31 2.31 0 01.702-.81 3.27 3.27 0 011.008-.486 12.73 12.73 0 011.17-.27c.42-.084.816-.144 1.188-.18.384-.048.72-.108 1.008-.18.288-.084.516-.198.684-.342.168-.156.252-.378.252-.666 0-.336-.066-.606-.198-.81a1.215 1.215 0 00-.486-.468 1.892 1.892 0 00-.666-.216 4.847 4.847 0 00-.72-.054c-.648 0-1.188.126-1.62.378-.432.24-.666.702-.702 1.386h-1.53c.024-.576.144-1.062.36-1.458a2.65 2.65 0 01.864-.954 3.53 3.53 0 011.224-.54 6.63 6.63 0 011.494-.162c.42 0 .834.03 1.242.09.42.06.798.186 1.134.378.336.18.606.438.81.774.204.336.306.774.306 1.314v4.788c0 .36.018.624.054.792.048.168.192.252.432.252.108 0 .264-.03.468-.09v1.188c-.264.156-.63.234-1.098.234-.396 0-.714-.108-.954-.324-.228-.228-.342-.594-.342-1.098-.42.504-.912.87-1.476 1.098a4.897 4.897 0 01-1.8.324zm.342-1.332c.504 0 .936-.066 1.296-.198.36-.144.654-.318.882-.522.228-.216.396-.444.504-.684.108-.252.162-.486.162-.702v-1.566c-.192.156-.444.264-.756.324s-.642.114-.99.162l-1.026.144a3.56 3.56 0 00-.936.252 1.74 1.74 0 00-.684.522c-.168.216-.252.516-.252.9 0 .252.048.468.144.648.108.168.24.306.396.414.168.108.36.186.576.234.216.048.444.072.684.072zm8.894-2.502a2.508 2.508 0 01-1.62-.9c-.42-.504-.63-1.14-.63-1.908 0-.876.258-1.572.774-2.088.528-.516 1.242-.774 2.142-.774h4.716v9.306h-1.53v-3.582h-2.034l-2.844 3.582h-2.034l3.06-3.636zm3.852-1.26v-3.06h-2.7c-.648 0-1.116.138-1.404.414-.288.276-.432.648-.432 1.116 0 .48.144.858.432 1.134.288.264.756.396 1.404.396h2.7zm4.016-4.41h1.53v4.446l4.266-4.446h2.034l-4.122 4.032 4.608 5.274h-1.962l-3.888-4.428-.936.918v3.51h-1.53v-9.306zm13.669 9.504c-.744 0-1.398-.12-1.962-.36a4.169 4.169 0 01-1.404-1.026 4.449 4.449 0 01-.864-1.548 6.113 6.113 0 01-.288-1.908c0-.684.096-1.32.288-1.908.192-.6.48-1.116.864-1.548a4.06 4.06 0 011.404-1.044c.564-.252 1.218-.378 1.962-.378.732 0 1.38.126 1.944.378.564.252 1.038.6 1.422 1.044.384.432.672.948.864 1.548.192.588.288 1.224.288 1.908 0 .684-.096 1.32-.288 1.908a4.449 4.449 0 01-.864 1.548 4.125 4.125 0 01-1.422 1.026c-.564.24-1.212.36-1.944.36zm0-1.332c.396 0 .768-.078 1.116-.234.36-.156.672-.378.936-.666.264-.3.468-.666.612-1.098.156-.444.234-.948.234-1.512 0-.564-.078-1.062-.234-1.494a3.123 3.123 0 00-.612-1.116 2.623 2.623 0 00-.936-.684 2.697 2.697 0 00-1.116-.234c-.396 0-.774.078-1.134.234a2.668 2.668 0 00-.918.684c-.264.3-.474.672-.63 1.116-.144.432-.216.93-.216 1.494s.072 1.068.216 1.512c.156.432.366.798.63 1.098.264.288.57.51.918.666.36.156.738.234 1.134.234zm6.502-8.172h4.302c.408 0 .798.03 1.17.09.384.06.726.174 1.026.342.3.156.54.384.72.684.18.3.27.684.27 1.152 0 .504-.12.912-.36 1.224-.24.312-.576.57-1.008.774v.018c.54.108.966.36 1.278.756.324.396.486.906.486 1.53 0 .396-.072.762-.216 1.098a2.376 2.376 0 01-.576.864c-.252.24-.552.432-.9.576a3.172 3.172 0 01-1.134.198h-5.058v-9.306zm4.77 8.01c.504 0 .882-.144 1.134-.432.264-.3.396-.672.396-1.116 0-.42-.138-.756-.414-1.008-.276-.252-.738-.378-1.386-.378h-2.988v2.934h3.258zm-.63-4.194c.66 0 1.116-.12 1.368-.36.264-.24.396-.558.396-.954 0-.384-.126-.678-.378-.882-.252-.216-.714-.324-1.386-.324h-2.628v2.52h2.628zm9.613 5.688c-.708 0-1.338-.114-1.89-.342a3.746 3.746 0 01-1.368-.972 4.409 4.409 0 01-.828-1.494 6.44 6.44 0 01-.27-1.926c0-.696.09-1.344.27-1.944.18-.612.45-1.14.81-1.584.372-.456.828-.81 1.368-1.062.552-.264 1.2-.396 1.944-.396.528 0 1.02.066 1.476.198.468.12.876.312 1.224.576.36.264.654.6.882 1.008.228.396.372.87.432 1.422h-1.584c-.12-.588-.372-1.044-.756-1.368-.384-.324-.9-.486-1.548-.486-.552 0-1.014.102-1.386.306a2.55 2.55 0 00-.9.81 3.518 3.518 0 00-.468 1.17 6.206 6.206 0 00-.144 1.35c0 .432.048.852.144 1.26.108.408.27.774.486 1.098.216.312.492.564.828.756.348.192.768.288 1.26.288.756 0 1.344-.198 1.764-.594.432-.396.696-.954.792-1.674h1.566c-.168 1.164-.594 2.058-1.278 2.682-.684.612-1.626.918-2.826.918zm5.996-9.504h1.53v4.446l4.266-4.446h2.034l-4.122 4.032 4.608 5.274h-1.962l-3.888-4.428-.936.918v3.51h-1.53v-9.306zm12.228 9.504a4.74 4.74 0 01-1.188-.144 2.734 2.734 0 01-.99-.432 2.44 2.44 0 01-.666-.81c-.156-.336-.234-.738-.234-1.206 0-.528.09-.96.27-1.296a2.31 2.31 0 01.702-.81 3.27 3.27 0 011.008-.486 12.73 12.73 0 011.17-.27c.42-.084.816-.144 1.188-.18.384-.048.72-.108 1.008-.18.288-.084.516-.198.684-.342.168-.156.252-.378.252-.666 0-.336-.066-.606-.198-.81a1.215 1.215 0 00-.486-.468 1.892 1.892 0 00-.666-.216 4.847 4.847 0 00-.72-.054c-.648 0-1.188.126-1.62.378-.432.24-.666.702-.702 1.386h-1.53c.024-.576.144-1.062.36-1.458a2.65 2.65 0 01.864-.954 3.53 3.53 0 011.224-.54 6.63 6.63 0 011.494-.162c.42 0 .834.03 1.242.09.42.06.798.186 1.134.378.336.18.606.438.81.774.204.336.306.774.306 1.314v4.788c0 .36.018.624.054.792.048.168.192.252.432.252.108 0 .264-.03.468-.09v1.188c-.264.156-.63.234-1.098.234-.396 0-.714-.108-.954-.324-.228-.228-.342-.594-.342-1.098-.42.504-.912.87-1.476 1.098a4.897 4.897 0 01-1.8.324zm.342-1.332c.504 0 .936-.066 1.296-.198.36-.144.654-.318.882-.522.228-.216.396-.444.504-.684.108-.252.162-.486.162-.702v-1.566c-.192.156-.444.264-.756.324s-.642.114-.99.162l-1.026.144a3.56 3.56 0 00-.936.252 1.74 1.74 0 00-.684.522c-.168.216-.252.516-.252.9 0 .252.048.468.144.648.108.168.24.306.396.414.168.108.36.186.576.234.216.048.444.072.684.072zm8.894-2.502a2.508 2.508 0 01-1.62-.9c-.42-.504-.63-1.14-.63-1.908 0-.876.258-1.572.774-2.088.528-.516 1.242-.774 2.142-.774h4.716v9.306h-1.53v-3.582h-2.034l-2.844 3.582h-2.034l3.06-3.636zm3.852-1.26v-3.06h-2.7c-.648 0-1.116.138-1.404.414-.288.276-.432.648-.432 1.116 0 .48.144.858.432 1.134.288.264.756.396 1.404.396h2.7zM25.976 374.31h8.802v1.44h-7.092v3.78h4.284c1.272 0 2.244.33 2.916.99.684.66 1.026 1.608 1.026 2.844 0 1.224-.342 2.166-1.026 2.826-.672.648-1.644.972-2.916.972h-5.994V374.31zm5.436 11.412c1.872 0 2.808-.786 2.808-2.358 0-1.596-.936-2.394-2.808-2.394h-3.726v4.752h3.726zm9.213 1.638a4.74 4.74 0 01-1.188-.144 2.734 2.734 0 01-.99-.432 2.44 2.44 0 01-.666-.81c-.156-.336-.234-.738-.234-1.206 0-.528.09-.96.27-1.296a2.31 2.31 0 01.702-.81 3.27 3.27 0 011.008-.486 12.73 12.73 0 011.17-.27c.42-.084.816-.144 1.188-.18.384-.048.72-.108 1.008-.18.288-.084.516-.198.684-.342.168-.156.252-.378.252-.666 0-.336-.066-.606-.198-.81a1.215 1.215 0 00-.486-.468 1.892 1.892 0 00-.666-.216 4.847 4.847 0 00-.72-.054c-.648 0-1.188.126-1.62.378-.432.24-.666.702-.702 1.386h-1.53c.024-.576.144-1.062.36-1.458a2.65 2.65 0 01.864-.954 3.53 3.53 0 011.224-.54 6.63 6.63 0 011.494-.162c.42 0 .834.03 1.242.09.42.06.798.186 1.134.378.336.18.606.438.81.774.204.336.306.774.306 1.314v4.788c0 .36.018.624.054.792.048.168.192.252.432.252.108 0 .264-.03.468-.09v1.188c-.264.156-.63.234-1.098.234-.396 0-.714-.108-.954-.324-.228-.228-.342-.594-.342-1.098-.42.504-.912.87-1.476 1.098a4.897 4.897 0 01-1.8.324zm.342-1.332c.504 0 .936-.066 1.296-.198.36-.144.654-.318.882-.522.228-.216.396-.444.504-.684.108-.252.162-.486.162-.702v-1.566c-.192.156-.444.264-.756.324s-.642.114-.99.162l-1.026.144a3.56 3.56 0 00-.936.252 1.74 1.74 0 00-.684.522c-.168.216-.252.516-.252.9 0 .252.048.468.144.648.108.168.24.306.396.414.168.108.36.186.576.234.216.048.444.072.684.072zm6.986-8.172h1.53v1.26h.036A2.252 2.252 0 0150.707 378c.54-.24 1.134-.36 1.782-.36.72 0 1.344.132 1.872.396.54.264.984.624 1.332 1.08.36.444.63.96.81 1.548.18.588.27 1.212.27 1.872 0 .672-.09 1.302-.27 1.89a4.322 4.322 0 01-.792 1.53 3.675 3.675 0 01-1.332 1.026c-.528.252-1.146.378-1.854.378a4.532 4.532 0 01-1.602-.306 3.645 3.645 0 01-.792-.432 2.661 2.661 0 01-.612-.702h-.036v4.788h-1.53v-12.852zm4.41 8.172c.516 0 .954-.102 1.314-.306.36-.204.648-.474.864-.81.216-.336.372-.72.468-1.152.096-.432.144-.876.144-1.332 0-.432-.06-.852-.18-1.26a3.187 3.187 0 00-.522-1.116 2.457 2.457 0 00-.9-.774c-.36-.192-.786-.288-1.278-.288-.516 0-.954.102-1.314.306-.36.204-.654.474-.882.81a3.383 3.383 0 00-.504 1.116c-.096.42-.144.846-.144 1.278 0 .456.054.9.162 1.332.108.42.276.792.504 1.116a2.8 2.8 0 00.918.792c.372.192.822.288 1.35.288zm6.44-8.172h1.53v1.26h.036A2.252 2.252 0 0161.557 378c.54-.24 1.134-.36 1.782-.36.72 0 1.344.132 1.872.396.54.264.984.624 1.332 1.08.36.444.63.96.81 1.548.18.588.27 1.212.27 1.872 0 .672-.09 1.302-.27 1.89a4.322 4.322 0 01-.792 1.53 3.675 3.675 0 01-1.332 1.026c-.528.252-1.146.378-1.854.378a4.532 4.532 0 01-1.602-.306 3.645 3.645 0 01-.792-.432 2.661 2.661 0 01-.612-.702h-.036v4.788h-1.53v-12.852zm4.41 8.172c.516 0 .954-.102 1.314-.306.36-.204.648-.474.864-.81.216-.336.372-.72.468-1.152.096-.432.144-.876.144-1.332 0-.432-.06-.852-.18-1.26a3.187 3.187 0 00-.522-1.116 2.457 2.457 0 00-.9-.774c-.36-.192-.786-.288-1.278-.288-.516 0-.954.102-1.314.306-.36.204-.654.474-.882.81a3.383 3.383 0 00-.504 1.116c-.096.42-.144.846-.144 1.278 0 .456.054.9.162 1.332.108.42.276.792.504 1.116a2.8 2.8 0 00.918.792c.372.192.822.288 1.35.288zm6.386-8.172h1.53v7.596l4.392-7.596h1.962v9.306h-1.53v-7.596l-4.392 7.596h-1.962v-9.306zm10.375 0h1.53v4.446l4.266-4.446h2.034l-4.122 4.032 4.608 5.274h-1.962l-3.888-4.428-.936.918v3.51h-1.53v-9.306zm12.228 9.504a4.74 4.74 0 01-1.188-.144 2.734 2.734 0 01-.99-.432 2.44 2.44 0 01-.665-.81c-.156-.336-.234-.738-.234-1.206 0-.528.09-.96.27-1.296a2.31 2.31 0 01.702-.81 3.27 3.27 0 011.008-.486 12.73 12.73 0 011.17-.27c.42-.084.816-.144 1.188-.18.384-.048.72-.108 1.008-.18.287-.084.516-.198.683-.342.169-.156.252-.378.252-.666 0-.336-.066-.606-.198-.81a1.215 1.215 0 00-.486-.468 1.892 1.892 0 00-.665-.216 4.847 4.847 0 00-.72-.054c-.648 0-1.189.126-1.62.378-.433.24-.666.702-.703 1.386h-1.53c.025-.576.145-1.062.36-1.458a2.65 2.65 0 01.865-.954 3.53 3.53 0 011.224-.54 6.63 6.63 0 011.493-.162c.42 0 .834.03 1.242.09.42.06.798.186 1.134.378.336.18.606.438.81.774.205.336.306.774.306 1.314v4.788c0 .36.018.624.054.792.049.168.193.252.433.252.108 0 .263-.03.468-.09v1.188c-.264.156-.63.234-1.099.234-.395 0-.713-.108-.954-.324-.227-.228-.341-.594-.341-1.098-.42.504-.912.87-1.477 1.098a4.897 4.897 0 01-1.8.324zm.343-1.332c.504 0 .936-.066 1.296-.198.36-.144.654-.318.882-.522.228-.216.395-.444.504-.684a1.79 1.79 0 00.161-.702v-1.566c-.192.156-.444.264-.756.324s-.642.114-.99.162l-1.025.144a3.56 3.56 0 00-.937.252 1.74 1.74 0 00-.684.522c-.167.216-.251.516-.251.9 0 .252.047.468.143.648.108.168.24.306.396.414.168.108.36.186.576.234.216.048.445.072.684.072zm5.834-.216h1.097c.133-.252.264-.594.397-1.026.143-.444.269-.93.377-1.458.12-.54.216-1.11.288-1.71a14.8 14.8 0 00.108-1.764v-1.998h6.732v7.956h1.26v4.176h-1.458v-2.826h-7.344v2.826H98.38v-4.176zm7.469 0v-6.606h-3.708v.792a14.5 14.5 0 01-.108 1.764c-.06.576-.144 1.122-.252 1.638-.108.516-.228.984-.36 1.404-.12.42-.24.756-.36 1.008h4.788zm4.408-7.956h1.53v3.708h4.716v-3.708h1.53v9.306h-1.53v-4.284h-4.716v4.284h-1.53v-9.306zm12.826 9.504a4.74 4.74 0 01-1.188-.144 2.734 2.734 0 01-.99-.432 2.44 2.44 0 01-.666-.81c-.156-.336-.234-.738-.234-1.206 0-.528.09-.96.27-1.296a2.31 2.31 0 01.702-.81 3.27 3.27 0 011.008-.486 12.73 12.73 0 011.17-.27c.42-.084.816-.144 1.188-.18.384-.048.72-.108 1.008-.18.288-.084.516-.198.684-.342.168-.156.252-.378.252-.666 0-.336-.066-.606-.198-.81a1.215 1.215 0 00-.486-.468 1.892 1.892 0 00-.666-.216 4.847 4.847 0 00-.72-.054c-.648 0-1.188.126-1.62.378-.432.24-.666.702-.702 1.386h-1.53c.024-.576.144-1.062.36-1.458a2.65 2.65 0 01.864-.954 3.53 3.53 0 011.224-.54 6.63 6.63 0 011.494-.162c.42 0 .834.03 1.242.09.42.06.798.186 1.134.378.336.18.606.438.81.774.204.336.306.774.306 1.314v4.788c0 .36.018.624.054.792.048.168.192.252.432.252.108 0 .264-.03.468-.09v1.188c-.264.156-.63.234-1.098.234-.396 0-.714-.108-.954-.324-.228-.228-.342-.594-.342-1.098-.42.504-.912.87-1.476 1.098a4.897 4.897 0 01-1.8.324zm.342-1.332c.504 0 .936-.066 1.296-.198.36-.144.654-.318.882-.522.228-.216.396-.444.504-.684.108-.252.162-.486.162-.702v-1.566c-.192.156-.444.264-.756.324s-.642.114-.99.162l-1.026.144a3.56 3.56 0 00-.936.252 1.74 1.74 0 00-.684.522c-.168.216-.252.516-.252.9 0 .252.048.468.144.648.108.168.24.306.396.414.168.108.36.186.576.234.216.048.444.072.684.072zm8.894-2.502a2.508 2.508 0 01-1.62-.9c-.42-.504-.63-1.14-.63-1.908 0-.876.258-1.572.774-2.088.528-.516 1.242-.774 2.142-.774h4.716v9.306h-1.53v-3.582h-2.034l-2.844 3.582h-2.034l3.06-3.636zm3.852-1.26v-3.06h-2.7c-.648 0-1.116.138-1.404.414-.288.276-.432.648-.432 1.116 0 .48.144.858.432 1.134.288.264.756.396 1.404.396h2.7zm117.733-74.267h10.008v12.852h-1.71v-11.412h-6.588v11.412h-1.71v-12.852zm15.316 13.05a4.74 4.74 0 01-1.188-.144 2.734 2.734 0 01-.99-.432 2.44 2.44 0 01-.666-.81c-.156-.336-.234-.738-.234-1.206 0-.528.09-.96.27-1.296a2.31 2.31 0 01.702-.81 3.27 3.27 0 011.008-.486 12.73 12.73 0 011.17-.27c.42-.084.816-.144 1.188-.18.384-.048.72-.108 1.008-.18.288-.084.516-.198.684-.342.168-.156.252-.378.252-.666 0-.336-.066-.606-.198-.81a1.215 1.215 0 00-.486-.468 1.892 1.892 0 00-.666-.216 4.847 4.847 0 00-.72-.054c-.648 0-1.188.126-1.62.378-.432.24-.666.702-.702 1.386h-1.53c.024-.576.144-1.062.36-1.458a2.65 2.65 0 01.864-.954 3.53 3.53 0 011.224-.54 6.63 6.63 0 011.494-.162c.42 0 .834.03 1.242.09.42.06.798.186 1.134.378.336.18.606.438.81.774.204.336.306.774.306 1.314v4.788c0 .36.018.624.054.792.048.168.192.252.432.252.108 0 .264-.03.468-.09v1.188c-.264.156-.63.234-1.098.234-.396 0-.714-.108-.954-.324-.228-.228-.342-.594-.342-1.098-.42.504-.912.87-1.476 1.098a4.897 4.897 0 01-1.8.324zm.342-1.332c.504 0 .936-.066 1.296-.198.36-.144.654-.318.882-.522.228-.216.396-.444.504-.684.108-.252.162-.486.162-.702v-1.566c-.192.156-.444.264-.756.324s-.642.114-.99.162l-1.026.144a3.56 3.56 0 00-.936.252 1.74 1.74 0 00-.684.522c-.168.216-.252.516-.252.9 0 .252.048.468.144.648.108.168.24.306.396.414.168.108.36.186.576.234.216.048.444.072.684.072zm9.182-6.822h-3.33v-1.35h8.19v1.35h-3.33v7.956h-1.53v-7.956zm6.316-1.35h1.53v1.26h.036a2.252 2.252 0 011.188-1.116c.54-.24 1.134-.36 1.782-.36.72 0 1.344.132 1.872.396.54.264.984.624 1.332 1.08.36.444.63.96.81 1.548.18.588.27 1.212.27 1.872 0 .672-.09 1.302-.27 1.89a4.322 4.322 0 01-.792 1.53 3.675 3.675 0 01-1.332 1.026c-.528.252-1.146.378-1.854.378a4.532 4.532 0 01-1.602-.306 3.645 3.645 0 01-.792-.432 2.661 2.661 0 01-.612-.702h-.036v4.788h-1.53v-12.852zm4.41 8.172c.516 0 .954-.102 1.314-.306.36-.204.648-.474.864-.81.216-.336.372-.72.468-1.152.096-.432.144-.876.144-1.332 0-.432-.06-.852-.18-1.26a3.187 3.187 0 00-.522-1.116 2.457 2.457 0 00-.9-.774c-.36-.192-.786-.288-1.278-.288-.516 0-.954.102-1.314.306-.36.204-.654.474-.882.81a3.383 3.383 0 00-.504 1.116c-.096.42-.144.846-.144 1.278 0 .456.054.9.162 1.332.108.42.276.792.504 1.116a2.8 2.8 0 00.918.792c.372.192.822.288 1.35.288zm6.386-8.172h1.53v7.596l4.392-7.596h1.962v9.306h-1.53v-7.596l-4.392 7.596h-1.962v-9.306zm10.376 0h1.53v4.446l4.266-4.446h2.034l-4.122 4.032 4.608 5.274h-1.962l-3.888-4.428-.936.918v3.51h-1.53v-9.306zm9.654 0h1.53v7.596l4.392-7.596h1.962v9.306h-1.53v-7.596l-4.392 7.596h-1.962v-9.306z" fill="#ABA3AD"/><path d="M164.499 43.85l66.5 72.65m31.5 33.5l120 127.851M83.835 429.346a724.562 724.562 0 0115.321-26.995m107.055-138.464a729.356 729.356 0 00-83.451 101.464m124.845-140.299a728.515 728.515 0 0182.394-61.847" stroke="#DFDCE0" stroke-width="5" stroke-linecap="round"/><path d="M183.915 330.384l29.14-22.106a4.412 4.412 0 016.09.731l32.167 39.55a4.413 4.413 0 01-.847 6.367l-32.278 23.199a4.412 4.412 0 01-6.165-1.018l-29.031-40.643a4.412 4.412 0 01.924-6.08z" fill="#DFDCE0"/><path d="M235.705 67.646C152.354 80.646 73.052 112.45 4 160.164" stroke="#DFDCE0" stroke-width="5" stroke-linecap="round"/><path d="M193.499 159.651c-6.186 0-11.2 5.014-11.2 11.2 0 5.64 4.175 10.293 9.6 11.072v14.528a1.6 1.6 0 103.2 0v-14.528c5.425-.779 9.6-5.432 9.6-11.072 0-6.186-5.015-11.2-11.2-11.2zm0 3.2c1.989 0 3.6 1.075 3.6 2.4 0 1.324-1.611 2.4-3.6 2.4s-3.6-1.076-3.6-2.4c0-1.325 1.611-2.4 3.6-2.4z" fill="#0D0D0D"/></svg>