<svg xmlns="http://www.w3.org/2000/svg" xmlns:xlink="http://www.w3.org/1999/xlink"><symbol id="arrow-1" viewBox="0 0 20 11"><path d="M14.602.047l-1.079 1.031 3.293 3.434H0v1.5h16.787l-3.264 3.41 1.079 1.031L19.6 5.25 14.602.047z"/></symbol><symbol id="arrow-2" viewBox="0 0 25 25"><path d="M21.632.968a1.25 1.25 0 011.767 1.768L10.607 15.53a1.25 1.25 0 01-1.768-1.768L21.632.968z" fill="#F1F1F1"/><rect x="11.051" width="13.262" height="2.5" rx="1.25" fill="#F1F1F1"/><rect x="21.816" y="13.262" width="13.262" height="2.5" rx="1.25" transform="rotate(-90 21.816 13.262)" fill="#F1F1F1"/><path d="M2.685 23.446a1.25 1.25 0 01-1.768-1.768L13.71 8.884a1.25 1.25 0 011.768 1.768L2.685 23.446z" fill="#F1F1F1"/><rect x="13.266" y="24.413" width="13.262" height="2.5" rx="1.25" transform="rotate(-180 13.266 24.413)" fill="#F1F1F1"/><rect x="2.5" y="11.151" width="13.262" height="2.5" rx="1.25" transform="rotate(90 2.5 11.151)" fill="#F1F1F1"/></symbol><symbol id="arrow-prev" viewBox="0 0 20 11"><path d="M5.398.047l1.079 1.031-3.293 3.434H20v1.5H3.213l3.264 3.41-1.079 1.031L.4 5.25 5.398.047z" fill="#0E0E0E"/></symbol><symbol id="cross" viewBox="0 0 43 44"><rect x="9.898" y="12.101" width="3" height="30" rx="1.5" transform="rotate(-45 9.898 12.1)" fill="#000"/><rect x="11.313" y="33.314" width="3" height="30" rx="1.5" transform="rotate(-135 11.313 33.314)" fill="#000"/></symbol><symbol id="german" viewBox="0 0 18 12"><path d="M17.066 7.727h-17v3.864h17V7.727z" fill="#FFC107"/><path d="M17.066 3.864h-17v3.863h17V3.864z" fill="#FF3D00"/><path d="M17.066 0h-17v3.864h17V0z" fill="#455A64"/></symbol><symbol id="hand" viewBox="0 0 68 68"><circle cx="34" cy="34" r="34" fill="#000"/><path fill="#fff" d="M27 20h3v17h-3zm6-2h3v17h-3zm7 4h3v17h-3z"/><path d="M21.501 26v14c-.166 3 3.723 10.974 12.999 8.5 7.5-2 13-5.5 17-7.5" stroke="#fff" stroke-width="3"/></symbol><symbol id="instagram" viewBox="0 0 24 24"><path d="M7.68 22.08h8.64a5.76 5.76 0 005.76-5.76V7.68a5.76 5.76 0 00-5.76-5.76H7.68a5.76 5.76 0 00-5.76 5.76v8.64a5.76 5.76 0 005.76 5.76z" stroke="currentColor" stroke-width="1.5" stroke-miterlimit="10"/><path d="M12 7.2a4.8 4.8 0 100 9.6 4.8 4.8 0 000-9.6z" stroke="currentColor" stroke-width="1.5" stroke-miterlimit="10"/><path d="M17.76 5.28a.96.96 0 100 1.92.96.96 0 000-1.92z" fill="currentColor"/></symbol><symbol id="logo" viewBox="0 0 104 105"><path d="M52.07 104.141C23.36 104.141 0 80.782 0 52.071 0 23.358 23.359 0 52.07 0v7.5C27.495 7.5 7.5 27.494 7.5 52.07s19.995 44.57 44.57 44.57v7.501zM63.985 1.467L62.958 6.64l-.28-.054-.006-.025L60.814.838 58.927.464l-1.474 7.421 1.344.267 1.028-5.174.279.056.008.024L61.97 8.78l1.887.376 1.473-7.423-1.344-.267zm4.689 9.45l2.73-7.056-1.408-.545-2.73 7.058 1.408.543zm11.667-2.429l-2.718 4.52-.243-.146v-.025l.191-6.015-1.649-.991-3.899 6.485 1.172.705 2.72-4.52.243.146v.026l-.191 6.015 1.648.99 3.9-6.483-1.174-.707zm8.36 8.63l.914-.976-4.068-3.808-5.172 5.522 4.154 3.89.913-.976-3.05-2.857 1.29-1.381 2.308 2.163.893-.953-2.308-2.161 1.158-1.24.033.03 2.935 2.747zm7.421 9.66c.143-.28.228-.579.246-.896a2.887 2.887 0 00-.118-.996 4.063 4.063 0 00-.487-1.04 3.797 3.797 0 00-.81-.925 2.735 2.735 0 00-.89-.488 2.022 2.022 0 00-.897-.074 2.16 2.16 0 00-.832.319c-.474.305-.77.693-.88 1.151-.11.46-.042.991.202 1.577l.573 1.364c.127.306.184.582.167.82-.017.246-.16.455-.424.625a.848.848 0 01-.85.064c-.288-.127-.55-.375-.782-.736a3.326 3.326 0 01-.281-.536 1.72 1.72 0 01-.128-.546 1.253 1.253 0 01.076-.524c.06-.16.167-.314.317-.455l-.834-1.298c-.558.462-.876 1.043-.943 1.727-.069.705.159 1.469.678 2.273.279.433.579.778.894 1.028.314.248.634.42.95.512.317.09.63.112.934.062.303-.052.591-.164.855-.333.282-.183.505-.386.661-.607.156-.22.259-.456.307-.701.049-.248.052-.509.009-.774a3.843 3.843 0 00-.236-.826l-.555-1.339a2.12 2.12 0 01-.167-.713c-.007-.231.101-.422.325-.567a.784.784 0 01.407-.133h.017a.85.85 0 01.378.09c.122.06.241.148.356.256.113.11.218.24.313.387.218.339.336.651.346.923.008.267-.093.517-.303.746l.836 1.298c.242-.208.432-.45.57-.715zm2.648 5.932l.016.041 1.455 3.747 1.246-.484-2.015-5.195-7.054 2.739 2.06 5.305 1.246-.483-1.514-3.898 1.762-.684.015.04 1.13 2.908 1.218-.474-1.146-2.947 1.582-.615zm5.04 14.426l-.214-1.353-5.21.823-.045-.28.02-.016 4.73-3.721-.302-1.9-7.473 1.183.214 1.353 5.21-.824.045.28-4.748 3.736.3 1.9 7.473-1.181zm-.521 9.829a2.91 2.91 0 00.488-.876c.12-.34.193-.718.217-1.125a3.829 3.829 0 00-.114-1.227 2.746 2.746 0 00-.434-.917 2.006 2.006 0 00-1.543-.817c-.563-.028-1.029.108-1.387.415-.36.309-.617.778-.762 1.395l-.34 1.44c-.075.323-.19.58-.346.762-.157.188-.396.28-.708.257a.848.848 0 01-.728-.448c-.156-.27-.224-.626-.2-1.055.013-.207.04-.408.088-.6a1.69 1.69 0 01.218-.515 1.21 1.21 0 01.37-.38c.143-.094.319-.156.524-.182l.086-1.54c-.724.044-1.322.328-1.778.844-.468.529-.733 1.282-.786 2.239-.03.512.012.968.12 1.354.109.386.267.714.47.972.2.26.444.46.718.598.276.138.574.218.887.235.337.02.635-.016.891-.102a1.84 1.84 0 00.662-.388c.183-.17.338-.38.462-.622.121-.241.221-.514.293-.806l.336-1.41a2.1 2.1 0 01.285-.674c.12-.18.301-.27.541-.27l.055.001a.794.794 0 01.407.13.828.828 0 01.265.306c.064.12.11.26.14.417.026.157.036.324.026.495-.023.405-.111.725-.264.953-.148.22-.378.364-.683.424l-.086 1.542c.317-.027.615-.11.883-.244.281-.142.525-.338.727-.581zm-7.702 3.898l-1.446 5.503 1.292.34 1.064-4.043 1.827.48-.804 3.06 1.262.33.805-3.057 1.641.431-1.034 3.93 1.294.34 1.417-5.39-7.318-1.924zm.277 18.19c.308-.129.598-.32.863-.565.266-.246.504-.558.709-.927.277-.5.443-.998.496-1.484a3.11 3.11 0 00-.152-1.384 3.578 3.578 0 00-.74-1.217 4.995 4.995 0 00-1.276-.988 4.916 4.916 0 00-1.512-.558 3.575 3.575 0 00-1.427.014 3.12 3.12 0 00-1.25.6c-.382.298-.72.705-.999 1.21a3.71 3.71 0 00-.424 1.146 2.958 2.958 0 00-.002 1.08c.064.345.195.67.386.969.181.282.416.54.697.763l.763-1.377a1.45 1.45 0 01-.482-.867c-.052-.338.026-.696.232-1.067a1.97 1.97 0 01.62-.701c.246-.16.514-.26.8-.298.287-.036.59-.016.902.064a3.9 3.9 0 01.943.38 4 4 0 01.822.599c.23.224.408.47.529.732.12.262.18.543.17.834a1.954 1.954 0 01-.265.9c-.38.684-.901.965-1.544.836l-.769 1.387c.314.1.633.14.946.133.331-.012.655-.084.964-.214zm-11.162 5.171l2.644-3.071.034.029 4.662 4.016.986-1.145-5.734-4.938-3.63 4.216 1.038.893zm1.463 7.004l-4.9-5.765-1.152.977 4.9 5.767 1.151-.979zm-11.88 1.947l5.196 3.032 1.656-.977-3.845-6.517-1.179.695 2.68 4.545-.244.144-.023-.013-5.196-3.032-1.658.977 3.845 6.517 1.18-.695-2.681-4.545.245-.144.024.013zm-3.292 7.3l-2.671-7.08-1.412.532 2.672 7.08 1.411-.532zm-11.397 2.571c.296.154.629.252.987.297.36.045.752.026 1.167-.055a3.944 3.944 0 001.455-.576c.403-.272.727-.61.96-1.007a3.57 3.57 0 00.453-1.351 4.99 4.99 0 00-.066-1.611 5 5 0 00-.544-1.517 3.589 3.589 0 00-.93-1.082 3.145 3.145 0 00-1.264-.57c-.476-.102-1.003-.096-1.569.015a3.754 3.754 0 00-1.15.412c-.328.19-.606.422-.828.694a2.722 2.722 0 00-.491.919 3.16 3.16 0 00-.138 1.025l1.546-.301c.015-.367.132-.68.351-.928.226-.256.552-.429.966-.51.343-.065.66-.058.939.024.279.083.529.224.74.42.213.196.392.442.534.73.14.288.246.612.315.967.069.353.093.694.07 1.013-.02.321-.094.616-.217.878-.122.26-.301.486-.529.668a1.943 1.943 0 01-.86.374c-.77.15-1.32-.065-1.634-.641l-1.558.305c.128.305.298.578.51.81.223.245.486.447.785.598z"/></symbol><symbol id="lupa" viewBox="0 0 26 26"><path d="M11.902 1C5.894 1 1 5.894 1 11.902c0 6.009 4.894 10.903 10.902 10.903 2.613 0 5.013-.928 6.893-2.468l4.328 4.328a1.09 1.09 0 101.542-1.542l-4.328-4.328a10.845 10.845 0 002.468-6.893C22.805 5.894 17.911 1 11.903 1zm0 2.18a8.705 8.705 0 018.723 8.723 8.705 8.705 0 01-8.723 8.722 8.705 8.705 0 01-8.721-8.723 8.706 8.706 0 018.721-8.721zm-.016 4.256a1.09 1.09 0 00-1.074 1.105v2.271h-2.27a1.089 1.089 0 00-.781 1.867 1.088 1.088 0 00.78.314h2.271v2.27a1.089 1.089 0 001.867.781 1.088 1.088 0 00.314-.78v-2.271h2.27a1.09 1.09 0 100-2.18h-2.27V8.54a1.09 1.09 0 00-1.107-1.105z" fill="#fff" stroke="#fff" stroke-width=".5"/></symbol><symbol id="play" viewBox="0 0 72 72"><path d="M36 0C16.117 0 0 16.117 0 36s16.117 36 36 36 36-16.117 36-36S55.883 0 36 0zm-7.2 48.927V23.073L50.4 36 28.8 48.927z" fill="#F1F1F1"/></symbol><symbol id="swiss" viewBox="0 0 18 12"><path d="M17.066 0H0v11.636h17.066V0z" fill="#FF3D00"/><path d="M9.69 2.327H7.364V9.31h2.328V2.327z" fill="#fff"/><path d="M12.02 4.655H5.04v2.327h6.98V4.655z" fill="#fff"/></symbol><symbol id="whatsapp" viewBox="0 0 18 18"><path d="M9.343.667c-4.588 0-8.323 3.732-8.325 8.32 0 1.467.383 2.899 1.112 4.16L1 17.333l4.36-1.03a8.316 8.316 0 003.978 1.012h.003c4.588 0 8.322-3.732 8.324-8.32a8.268 8.268 0 00-2.435-5.888A8.27 8.27 0 009.343.667zm-.002 1.666a6.624 6.624 0 014.71 1.952 6.608 6.608 0 011.947 4.709 6.665 6.665 0 01-6.658 6.655 6.657 6.657 0 01-3.18-.81l-.562-.305-.62.146-1.64.388.4-1.488.18-.667-.345-.6a6.65 6.65 0 01-.888-3.326A6.665 6.665 0 019.34 2.333zM6.397 5.146a.764.764 0 00-.555.26c-.19.208-.729.71-.729 1.734 0 1.023.745 2.012.85 2.151.103.139 1.438 2.305 3.553 3.138 1.756.693 2.113.556 2.495.521.381-.034 1.231-.502 1.404-.988.174-.486.174-.903.122-.99-.051-.086-.19-.138-.398-.242-.208-.104-1.23-.606-1.421-.675-.191-.07-.33-.104-.469.104-.138.208-.536.675-.658.814-.121.139-.242.158-.45.053-.209-.105-.879-.325-1.674-1.033-.618-.55-1.035-1.23-1.157-1.439-.12-.207-.011-.321.093-.425.093-.093.207-.243.31-.364.104-.122.14-.209.21-.347.068-.138.033-.26-.019-.365-.051-.104-.456-1.13-.641-1.542-.156-.346-.32-.354-.469-.36-.12-.005-.259-.005-.397-.005z" fill="#1F1F1F" stroke="#F1F1F1" stroke-width=".2"/></symbol></svg>