<svg xmlns="http://www.w3.org/2000/svg" xmlns:xlink="http://www.w3.org/1999/xlink"><symbol id="arrow-1" viewBox="0 0 20 11"><path d="M14.602.047l-1.079 1.031 3.293 3.434H0v1.5h16.787l-3.264 3.41 1.079 1.031L19.6 5.25 14.602.047z"/></symbol><symbol id="arrow-2" viewBox="0 0 25 25"><path d="M21.632.968a1.25 1.25 0 011.767 1.768L10.607 15.53a1.25 1.25 0 01-1.768-1.768L21.632.968z" fill="#F1F1F1"/><rect x="11.051" width="13.262" height="2.5" rx="1.25" fill="#F1F1F1"/><rect x="21.816" y="13.262" width="13.262" height="2.5" rx="1.25" transform="rotate(-90 21.816 13.262)" fill="#F1F1F1"/><path d="M2.685 23.446a1.25 1.25 0 01-1.768-1.768L13.71 8.884a1.25 1.25 0 011.768 1.768L2.685 23.446z" fill="#F1F1F1"/><rect x="13.266" y="24.413" width="13.262" height="2.5" rx="1.25" transform="rotate(-180 13.266 24.413)" fill="#F1F1F1"/><rect x="2.5" y="11.151" width="13.262" height="2.5" rx="1.25" transform="rotate(90 2.5 11.151)" fill="#F1F1F1"/></symbol><symbol id="arrow-prev" viewBox="0 0 20 11"><path d="M5.398.047l1.079 1.031-3.293 3.434H20v1.5H3.213l3.264 3.41-1.079 1.031L.4 5.25 5.398.047z" fill="#0E0E0E"/></symbol><symbol id="cross" viewBox="0 0 43 44"><rect x="9.898" y="12.101" width="3" height="30" rx="1.5" transform="rotate(-45 9.898 12.1)" fill="#000"/><rect x="11.313" y="33.314" width="3" height="30" rx="1.5" transform="rotate(-135 11.313 33.314)" fill="#000"/></symbol><symbol id="german" viewBox="0 0 18 12"><path d="M17.066 7.727h-17v3.864h17V7.727z" fill="#FFC107"/><path d="M17.066 3.864h-17v3.863h17V3.864z" fill="#FF3D00"/><path d="M17.066 0h-17v3.864h17V0z" fill="#455A64"/></symbol><symbol id="hand" viewBox="0 0 68 68"><circle cx="34" cy="34" r="34" fill="#000"/><path fill="#fff" d="M27 20h3v17h-3zm6-2h3v17h-3zm7 4h3v17h-3z"/><path d="M21.501 26v14c-.166 3 3.723 10.974 12.999 8.5 7.5-2 13-5.5 17-7.5" stroke="#fff" stroke-width="3"/></symbol><symbol id="instagram-2" viewBox="0 0 24 24"><path d="M7.678 22.08h8.64a5.76 5.76 0 005.76-5.76V7.68a5.76 5.76 0 00-5.76-5.76h-8.64a5.76 5.76 0 00-5.76 5.76v8.64a5.76 5.76 0 005.76 5.76z" stroke="currentColor" stroke-miterlimit="10"/><path d="M12 7.2a4.8 4.8 0 100 9.6 4.8 4.8 0 000-9.6z" stroke="currentColor" stroke-miterlimit="10"/><path d="M17.76 5.28a.96.96 0 100 1.92.96.96 0 000-1.92z" fill="currentColor"/></symbol><symbol id="instagram" viewBox="0 0 24 24"><path d="M7.68 22.08h8.64a5.76 5.76 0 005.76-5.76V7.68a5.76 5.76 0 00-5.76-5.76H7.68a5.76 5.76 0 00-5.76 5.76v8.64a5.76 5.76 0 005.76 5.76z" stroke="currentColor" stroke-width="1.5" stroke-miterlimit="10"/><path d="M12 7.2a4.8 4.8 0 100 9.6 4.8 4.8 0 000-9.6z" stroke="currentColor" stroke-width="1.5" stroke-miterlimit="10"/><path d="M17.76 5.28a.96.96 0 100 1.92.96.96 0 000-1.92z" fill="currentColor"/></symbol><symbol id="logo" viewBox="0 0 106 108"><path fill-rule="evenodd" clip-rule="evenodd" d="M52.508 8.602a45.745 45.745 0 00-31.743 13.652A45.526 45.526 0 007.689 54.176c0 11.939 4.695 23.4 13.076 31.922A45.744 45.744 0 0052.508 99.75l-.147 7.67a53.447 53.447 0 01-37.085-15.95A53.187 53.187 0 010 54.176a53.187 53.187 0 0115.276-37.294A53.443 53.443 0 0152.361.932l.147 7.67z" fill="#fff"/><path d="M65.244 2.377l-1.115 5.279-.215-.046-1.843-5.9-2-.42-1.618 7.66 1.463.308L61.03 3.98l.215.045 1.844 5.9 2 .42 1.617-7.66-1.462-.307zm4.908 1.495l-2.729 7.34 1.536.568 2.729-7.34-1.536-.568zm9.537 4.44l-2.603 4.728-.193-.105-.046-6.18-1.792-.982-3.777 6.863 1.31.717 2.603-4.728.192.105.047 6.18 1.792.982 3.777-6.863-1.31-.717zm1.681 8.88l1.181-1.418 2.497 2.07.914-1.098-2.496-2.07 1.055-1.266 3.207 2.66.936-1.124-4.469-3.705-5.022 6.028 4.561 3.783.936-1.123-3.3-2.737zm14.363 9.645c1.038-.956 1.083-2.413.108-3.771-1.148-1.599-2.61-1.817-3.652-1.073-.988.706-1.146 1.8-.601 2.915l.7 1.407c.277.555.238 1.026-.18 1.325-.499.356-1.13.135-1.671-.62-.491-.684-.675-1.466-.078-2.04l-.969-1.35c-1.144 1.032-1.246 2.596-.106 4.186 1.193 1.66 2.738 1.9 3.824 1.125 1.104-.79 1.141-1.957.585-3.145l-.627-1.286c-.251-.519-.277-.93.106-1.204.463-.33 1.02-.137 1.523.565.452.63.473 1.166.07 1.616l.968 1.35zm-1.291 6.298l1.669-.787 1.385 2.925 1.292-.61-1.385-2.924 1.49-.703 1.78 3.758 1.322-.623-2.48-5.235-7.095 3.345 2.531 5.343 1.322-.623-1.831-3.866zm10.323 10.444l-5.26 1.255-.05-.214 4.556-4.187-.476-1.983-7.632 1.82.347 1.45 5.26-1.254.051.213-4.556 4.188.475 1.983 7.633-1.82-.348-1.451zm-1.068 12.22c1.402-.213 2.26-1.398 2.216-3.075-.053-1.973-1.147-2.975-2.432-2.941-1.22.032-1.967.853-2.143 2.086l-.211 1.563c-.083.617-.381.987-.897 1-.615.017-1.015-.52-1.04-1.453-.022-.844.266-1.597 1.086-1.74l-.044-1.666c-1.534.217-2.501 1.46-2.448 3.422.054 2.05 1.204 3.116 2.545 3.08 1.362-.036 2.052-.987 2.259-2.287l.203-1.42c.084-.573.294-.93.767-.942.571-.015.925.458.948 1.324.021.778-.264 1.236-.854 1.383l.045 1.666zm-4.758 5.125l1.821.305-.537 3.19 1.409.236.537-3.19 1.626.272-.69 4.098 1.442.242.961-5.71-7.74-1.296-.98 5.829 1.441.241.71-4.217zm.315 14.213c1.377.334 2.623-.439 3.218-2.008.701-1.845.07-3.186-1.132-3.64-1.141-.431-2.145.045-2.776 1.12l-.79 1.366c-.31.54-.726.77-1.21.587-.575-.218-.74-.867-.409-1.738.3-.79.852-1.378 1.666-1.2l.592-1.558c-1.501-.38-2.869.405-3.566 2.24-.728 1.918-.069 3.34 1.185 3.813 1.274.482 2.273-.137 2.959-1.262l.728-1.237c.295-.498.626-.749 1.068-.582.534.202.681.774.374 1.584-.277.728-.714 1.043-1.316.957l-.591 1.558zm-9.173 8.877c-.505-.573-.528-1.284-.028-1.965.832-1.131 2.16-.99 3.33-.134s1.704 2.076.872 3.208c-.475.645-1.024.855-1.658.623l-1.013 1.38c1.317.636 2.823.256 3.85-1.141 1.41-1.919.884-4.003-1.057-5.423-1.941-1.42-4.086-1.302-5.502.625-1.086 1.477-.923 3.091.199 4.198l1.007-1.37zm-4.428 3.401l4.395 4.575 1.183-1.13-5.43-5.653-4.182 3.999 1.034 1.076 3-2.867zm-.837 9.148l-4.676-6.287-1.315.974 4.676 6.286 1.315-.973zm-9.159 5.665l-2.533-4.766.195-.103 5.203 3.354 1.806-.955-3.676-6.917-1.32.699 2.533 4.766-.195.103-5.203-3.354-1.806.955 3.676 6.917 1.32-.699zm-4.723 1.98l-2.62-7.38-1.544.546 2.62 7.379 1.544-.545zm-10.872-2.571c.012-.763.473-1.305 1.303-1.474 1.378-.28 2.266.714 2.556 2.132.29 1.419-.136 2.681-1.514 2.961-.787.16-1.335-.052-1.648-.649l-1.68.342c.546 1.355 1.918 2.083 3.62 1.737 2.337-.476 3.352-2.373 2.87-4.726-.48-2.353-2.149-3.704-4.497-3.226-1.798.366-2.766 1.671-2.68 3.243l1.67-.34z" fill="#fff"/></symbol><symbol id="lupa" viewBox="0 0 26 26"><path d="M11.902 1C5.894 1 1 5.894 1 11.902c0 6.009 4.894 10.903 10.902 10.903 2.613 0 5.013-.928 6.893-2.468l4.328 4.328a1.09 1.09 0 101.542-1.542l-4.328-4.328a10.845 10.845 0 002.468-6.893C22.805 5.894 17.911 1 11.903 1zm0 2.18a8.705 8.705 0 018.723 8.723 8.705 8.705 0 01-8.723 8.722 8.705 8.705 0 01-8.721-8.723 8.706 8.706 0 018.721-8.721zm-.016 4.256a1.09 1.09 0 00-1.074 1.105v2.271h-2.27a1.089 1.089 0 00-.781 1.867 1.088 1.088 0 00.78.314h2.271v2.27a1.089 1.089 0 001.867.781 1.088 1.088 0 00.314-.78v-2.271h2.27a1.09 1.09 0 100-2.18h-2.27V8.54a1.09 1.09 0 00-1.107-1.105z" fill="#fff" stroke="#fff" stroke-width=".5"/></symbol><symbol id="play" viewBox="0 0 72 72"><path d="M36 0C16.117 0 0 16.117 0 36s16.117 36 36 36 36-16.117 36-36S55.883 0 36 0zm-7.2 48.927V23.073L50.4 36 28.8 48.927z" fill="#F1F1F1"/></symbol><symbol id="swiss" viewBox="0 0 18 12"><path d="M17.066 0H0v11.636h17.066V0z" fill="#FF3D00"/><path d="M9.69 2.327H7.364V9.31h2.328V2.327z" fill="#fff"/><path d="M12.02 4.655H5.04v2.327h6.98V4.655z" fill="#fff"/></symbol><symbol id="whatsapp-2" viewBox="0 0 24 24"><path d="M9.163 7.211c-.23-.546-.463-.472-.638-.48-.165-.008-.353-.01-.542-.01-.19 0-.496.07-.756.35-.26.28-.993.957-.993 2.335 0 1.377 1.016 2.707 1.158 2.895.142.186 1.998 3.013 4.841 4.226.677.288 1.205.46 1.616.59.679.212 1.297.182 1.786.11.544-.08 1.677-.677 1.913-1.33.236-.654.236-1.215.165-1.331-.071-.117-.26-.187-.543-.327-.284-.14-1.677-.818-1.938-.91-.26-.094-.448-.14-.637.14-.19.28-.732.91-.898 1.097-.165.187-.33.21-.613.07-.284-.14-1.198-.435-2.28-1.389-.842-.742-1.411-1.658-1.576-1.938-.165-.28-.018-.432.124-.572.128-.125.283-.326.425-.49.142-.164.19-.28.284-.467.094-.187.046-.35-.024-.49-.07-.141-.638-1.518-.874-2.079z" stroke="currentColor" stroke-miterlimit="10"/><path d="M12.001 1.441c-5.832 0-10.56 4.728-10.56 10.56 0 1.955.534 3.785 1.46 5.355L1.44 22.56l5.412-1.34A10.51 10.51 0 0012 22.56c5.832 0 10.56-4.728 10.56-10.56 0-5.832-4.728-10.56-10.56-10.56z" stroke="currentColor" stroke-miterlimit="10" stroke-linejoin="round"/></symbol><symbol id="whatsapp" viewBox="0 0 18 18"><path d="M9.343.667c-4.588 0-8.323 3.732-8.325 8.32 0 1.467.383 2.899 1.112 4.16L1 17.333l4.36-1.03a8.316 8.316 0 003.978 1.012h.003c4.588 0 8.322-3.732 8.324-8.32a8.268 8.268 0 00-2.435-5.888A8.27 8.27 0 009.343.667zm-.002 1.666a6.624 6.624 0 014.71 1.952 6.608 6.608 0 011.947 4.709 6.665 6.665 0 01-6.658 6.655 6.657 6.657 0 01-3.18-.81l-.562-.305-.62.146-1.64.388.4-1.488.18-.667-.345-.6a6.65 6.65 0 01-.888-3.326A6.665 6.665 0 019.34 2.333zM6.397 5.146a.764.764 0 00-.555.26c-.19.208-.729.71-.729 1.734 0 1.023.745 2.012.85 2.151.103.139 1.438 2.305 3.553 3.138 1.756.693 2.113.556 2.495.521.381-.034 1.231-.502 1.404-.988.174-.486.174-.903.122-.99-.051-.086-.19-.138-.398-.242-.208-.104-1.23-.606-1.421-.675-.191-.07-.33-.104-.469.104-.138.208-.536.675-.658.814-.121.139-.242.158-.45.053-.209-.105-.879-.325-1.674-1.033-.618-.55-1.035-1.23-1.157-1.439-.12-.207-.011-.321.093-.425.093-.093.207-.243.31-.364.104-.122.14-.209.21-.347.068-.138.033-.26-.019-.365-.051-.104-.456-1.13-.641-1.542-.156-.346-.32-.354-.469-.36-.12-.005-.259-.005-.397-.005z" fill="#1F1F1F" stroke="#F1F1F1" stroke-width=".2"/></symbol></svg>