<svg width="385" height="432" viewBox="0 0 385 432" fill="none" xmlns="http://www.w3.org/2000/svg">
<path d="M301.444 112.619L295.187 96.7827L289.894 106.04L284.622 96.7827L278.343 112.619H276.5V115.02H285.972V112.619H284.558L285.929 108.676L289.894 115.191L293.858 108.676L295.23 112.619H293.815V115.02H303.287V112.619H301.444Z" fill="#B6B0B8"/>
<path d="M92.4434 360.687L86.1859 344.851L80.8927 354.108L75.621 344.851L69.342 360.687H67.499V363.087H76.971V360.687H75.5567L76.9282 356.744L80.8927 363.259L84.8572 356.744L86.2287 360.687H84.8144V363.087H94.2864V360.687H92.4434Z" fill="#B6B0B8"/>
<path d="M239.849 126.242H242.189L246.239 137.042L250.307 126.242H252.647V139.094H251.027V128.402H250.991L246.977 139.094H245.519L241.505 128.402H241.469V139.094H239.849V126.242ZM257.995 139.292C257.575 139.292 257.179 139.244 256.807 139.148C256.435 139.064 256.105 138.92 255.817 138.716C255.541 138.5 255.319 138.23 255.151 137.906C254.995 137.57 254.917 137.168 254.917 136.7C254.917 136.172 255.007 135.74 255.187 135.404C255.367 135.068 255.601 134.798 255.889 134.594C256.189 134.378 256.525 134.216 256.897 134.108C257.281 134 257.671 133.91 258.067 133.838C258.487 133.754 258.883 133.694 259.255 133.658C259.639 133.61 259.975 133.55 260.263 133.478C260.551 133.394 260.779 133.28 260.947 133.136C261.115 132.98 261.199 132.758 261.199 132.47C261.199 132.134 261.133 131.864 261.001 131.66C260.881 131.456 260.719 131.3 260.515 131.192C260.323 131.084 260.101 131.012 259.849 130.976C259.609 130.94 259.369 130.922 259.129 130.922C258.481 130.922 257.941 131.048 257.509 131.3C257.077 131.54 256.843 132.002 256.807 132.686H255.277C255.301 132.11 255.421 131.624 255.637 131.228C255.853 130.832 256.141 130.514 256.501 130.274C256.861 130.022 257.269 129.842 257.725 129.734C258.193 129.626 258.691 129.572 259.219 129.572C259.639 129.572 260.053 129.602 260.461 129.662C260.881 129.722 261.259 129.848 261.595 130.04C261.931 130.22 262.201 130.478 262.405 130.814C262.609 131.15 262.711 131.588 262.711 132.128V136.916C262.711 137.276 262.729 137.54 262.765 137.708C262.813 137.876 262.957 137.96 263.197 137.96C263.305 137.96 263.461 137.93 263.665 137.87V139.058C263.401 139.214 263.035 139.292 262.567 139.292C262.171 139.292 261.853 139.184 261.613 138.968C261.385 138.74 261.271 138.374 261.271 137.87C260.851 138.374 260.359 138.74 259.795 138.968C259.243 139.184 258.643 139.292 257.995 139.292ZM258.337 137.96C258.841 137.96 259.273 137.894 259.633 137.762C259.993 137.618 260.287 137.444 260.515 137.24C260.743 137.024 260.911 136.796 261.019 136.556C261.127 136.304 261.181 136.07 261.181 135.854V134.288C260.989 134.444 260.737 134.552 260.425 134.612C260.113 134.672 259.783 134.726 259.435 134.774C259.099 134.822 258.757 134.87 258.409 134.918C258.061 134.966 257.749 135.05 257.473 135.17C257.197 135.29 256.969 135.464 256.789 135.692C256.621 135.908 256.537 136.208 256.537 136.592C256.537 136.844 256.585 137.06 256.681 137.24C256.789 137.408 256.921 137.546 257.077 137.654C257.245 137.762 257.437 137.84 257.653 137.888C257.869 137.936 258.097 137.96 258.337 137.96ZM267.231 135.458C266.571 135.362 266.031 135.062 265.611 134.558C265.191 134.054 264.981 133.418 264.981 132.65C264.981 131.774 265.239 131.078 265.755 130.562C266.283 130.046 266.997 129.788 267.897 129.788H272.613V139.094H271.083V135.512H269.049L266.205 139.094H264.171L267.231 135.458ZM271.083 134.198V131.138H268.383C267.735 131.138 267.267 131.276 266.979 131.552C266.691 131.828 266.547 132.2 266.547 132.668C266.547 133.148 266.691 133.526 266.979 133.802C267.267 134.066 267.735 134.198 268.383 134.198H271.083ZM275.099 129.788H276.629V134.234L280.895 129.788H282.929L278.807 133.82L283.415 139.094H281.453L277.565 134.666L276.629 135.584V139.094H275.099V129.788ZM288.768 139.292C288.024 139.292 287.37 139.172 286.806 138.932C286.254 138.68 285.786 138.338 285.402 137.906C285.018 137.462 284.73 136.946 284.538 136.358C284.346 135.77 284.25 135.134 284.25 134.45C284.25 133.766 284.346 133.13 284.538 132.542C284.73 131.942 285.018 131.426 285.402 130.994C285.786 130.55 286.254 130.202 286.806 129.95C287.37 129.698 288.024 129.572 288.768 129.572C289.5 129.572 290.148 129.698 290.712 129.95C291.276 130.202 291.75 130.55 292.134 130.994C292.518 131.426 292.806 131.942 292.998 132.542C293.19 133.13 293.286 133.766 293.286 134.45C293.286 135.134 293.19 135.77 292.998 136.358C292.806 136.946 292.518 137.462 292.134 137.906C291.75 138.338 291.276 138.68 290.712 138.932C290.148 139.172 289.5 139.292 288.768 139.292ZM288.768 137.96C289.164 137.96 289.536 137.882 289.884 137.726C290.244 137.57 290.556 137.348 290.82 137.06C291.084 136.76 291.288 136.394 291.432 135.962C291.588 135.518 291.666 135.014 291.666 134.45C291.666 133.886 291.588 133.388 291.432 132.956C291.288 132.512 291.084 132.14 290.82 131.84C290.556 131.54 290.244 131.312 289.884 131.156C289.536 131 289.164 130.922 288.768 130.922C288.372 130.922 287.994 131 287.634 131.156C287.286 131.312 286.98 131.54 286.716 131.84C286.452 132.14 286.242 132.512 286.086 132.956C285.942 133.388 285.87 133.886 285.87 134.45C285.87 135.014 285.942 135.518 286.086 135.962C286.242 136.394 286.452 136.76 286.716 137.06C286.98 137.348 287.286 137.57 287.634 137.726C287.994 137.882 288.372 137.96 288.768 137.96ZM295.27 129.788H299.572C299.98 129.788 300.37 129.818 300.742 129.878C301.126 129.938 301.468 130.052 301.768 130.22C302.068 130.376 302.308 130.604 302.488 130.904C302.668 131.204 302.758 131.588 302.758 132.056C302.758 132.56 302.638 132.968 302.398 133.28C302.158 133.592 301.822 133.85 301.39 134.054V134.072C301.93 134.18 302.356 134.432 302.668 134.828C302.992 135.224 303.154 135.734 303.154 136.358C303.154 136.754 303.082 137.12 302.938 137.456C302.806 137.792 302.614 138.08 302.362 138.32C302.11 138.56 301.81 138.752 301.462 138.896C301.114 139.028 300.736 139.094 300.328 139.094H295.27V129.788ZM300.04 137.798C300.544 137.798 300.922 137.654 301.174 137.366C301.438 137.066 301.57 136.694 301.57 136.25C301.57 135.83 301.432 135.494 301.156 135.242C300.88 134.99 300.418 134.864 299.77 134.864H296.782V137.798H300.04ZM299.41 133.604C300.07 133.604 300.526 133.484 300.778 133.244C301.042 133.004 301.174 132.686 301.174 132.29C301.174 131.906 301.048 131.612 300.796 131.408C300.544 131.192 300.082 131.084 299.41 131.084H296.782V133.604H299.41ZM309.023 139.292C308.315 139.292 307.685 139.178 307.133 138.95C306.593 138.722 306.137 138.398 305.765 137.978C305.405 137.558 305.129 137.06 304.937 136.484C304.757 135.908 304.667 135.266 304.667 134.558C304.667 133.862 304.757 133.214 304.937 132.614C305.117 132.002 305.387 131.474 305.747 131.03C306.119 130.574 306.575 130.22 307.115 129.968C307.667 129.704 308.315 129.572 309.059 129.572C309.587 129.572 310.079 129.638 310.535 129.77C311.003 129.89 311.411 130.082 311.759 130.346C312.119 130.61 312.413 130.946 312.641 131.354C312.869 131.75 313.013 132.224 313.073 132.776H311.489C311.369 132.188 311.117 131.732 310.733 131.408C310.349 131.084 309.833 130.922 309.185 130.922C308.633 130.922 308.171 131.024 307.799 131.228C307.427 131.432 307.127 131.702 306.899 132.038C306.683 132.374 306.527 132.764 306.431 133.208C306.335 133.64 306.287 134.09 306.287 134.558C306.287 134.99 306.335 135.41 306.431 135.818C306.539 136.226 306.701 136.592 306.917 136.916C307.133 137.228 307.409 137.48 307.745 137.672C308.093 137.864 308.513 137.96 309.005 137.96C309.761 137.96 310.349 137.762 310.769 137.366C311.201 136.97 311.465 136.412 311.561 135.692H313.127C312.959 136.856 312.533 137.75 311.849 138.374C311.165 138.986 310.223 139.292 309.023 139.292ZM315.019 129.788H316.549V134.234L320.815 129.788H322.849L318.727 133.82L323.335 139.094H321.373L317.485 134.666L316.549 135.584V139.094H315.019V129.788ZM327.247 139.292C326.827 139.292 326.431 139.244 326.059 139.148C325.687 139.064 325.357 138.92 325.069 138.716C324.793 138.5 324.571 138.23 324.403 137.906C324.247 137.57 324.169 137.168 324.169 136.7C324.169 136.172 324.259 135.74 324.439 135.404C324.619 135.068 324.853 134.798 325.141 134.594C325.441 134.378 325.777 134.216 326.149 134.108C326.533 134 326.923 133.91 327.319 133.838C327.739 133.754 328.135 133.694 328.507 133.658C328.891 133.61 329.227 133.55 329.515 133.478C329.803 133.394 330.031 133.28 330.199 133.136C330.367 132.98 330.451 132.758 330.451 132.47C330.451 132.134 330.385 131.864 330.253 131.66C330.133 131.456 329.971 131.3 329.767 131.192C329.575 131.084 329.353 131.012 329.101 130.976C328.861 130.94 328.621 130.922 328.381 130.922C327.733 130.922 327.193 131.048 326.761 131.3C326.329 131.54 326.095 132.002 326.059 132.686H324.529C324.553 132.11 324.673 131.624 324.889 131.228C325.105 130.832 325.393 130.514 325.753 130.274C326.113 130.022 326.521 129.842 326.977 129.734C327.445 129.626 327.943 129.572 328.471 129.572C328.891 129.572 329.305 129.602 329.713 129.662C330.133 129.722 330.511 129.848 330.847 130.04C331.183 130.22 331.453 130.478 331.657 130.814C331.861 131.15 331.963 131.588 331.963 132.128V136.916C331.963 137.276 331.981 137.54 332.017 137.708C332.065 137.876 332.209 137.96 332.449 137.96C332.557 137.96 332.713 137.93 332.917 137.87V139.058C332.653 139.214 332.287 139.292 331.819 139.292C331.423 139.292 331.105 139.184 330.865 138.968C330.637 138.74 330.523 138.374 330.523 137.87C330.103 138.374 329.611 138.74 329.047 138.968C328.495 139.184 327.895 139.292 327.247 139.292ZM327.589 137.96C328.093 137.96 328.525 137.894 328.885 137.762C329.245 137.618 329.539 137.444 329.767 137.24C329.995 137.024 330.163 136.796 330.271 136.556C330.379 136.304 330.433 136.07 330.433 135.854V134.288C330.241 134.444 329.989 134.552 329.677 134.612C329.365 134.672 329.035 134.726 328.687 134.774C328.351 134.822 328.009 134.87 327.661 134.918C327.313 134.966 327.001 135.05 326.725 135.17C326.449 135.29 326.221 135.464 326.041 135.692C325.873 135.908 325.789 136.208 325.789 136.592C325.789 136.844 325.837 137.06 325.933 137.24C326.041 137.408 326.173 137.546 326.329 137.654C326.497 137.762 326.689 137.84 326.905 137.888C327.121 137.936 327.349 137.96 327.589 137.96ZM336.483 135.458C335.823 135.362 335.283 135.062 334.863 134.558C334.443 134.054 334.233 133.418 334.233 132.65C334.233 131.774 334.491 131.078 335.007 130.562C335.535 130.046 336.249 129.788 337.149 129.788H341.865V139.094H340.335V135.512H338.301L335.457 139.094H333.423L336.483 135.458ZM340.335 134.198V131.138H337.635C336.987 131.138 336.519 131.276 336.231 131.552C335.943 131.828 335.799 132.2 335.799 132.668C335.799 133.148 335.943 133.526 336.231 133.802C336.519 134.066 336.987 134.198 337.635 134.198H340.335Z" fill="#ABA3AD"/>
<path d="M25.9763 374.31H34.7783V375.75H27.6863V379.53H31.9703C33.2423 379.53 34.2143 379.86 34.8863 380.52C35.5703 381.18 35.9123 382.128 35.9123 383.364C35.9123 384.588 35.5703 385.53 34.8863 386.19C34.2143 386.838 33.2423 387.162 31.9703 387.162H25.9763V374.31ZM31.4123 385.722C33.2843 385.722 34.2203 384.936 34.2203 383.364C34.2203 381.768 33.2843 380.97 31.4123 380.97H27.6863V385.722H31.4123ZM40.6248 387.36C40.2048 387.36 39.8088 387.312 39.4368 387.216C39.0648 387.132 38.7348 386.988 38.4468 386.784C38.1708 386.568 37.9488 386.298 37.7808 385.974C37.6248 385.638 37.5468 385.236 37.5468 384.768C37.5468 384.24 37.6368 383.808 37.8168 383.472C37.9968 383.136 38.2308 382.866 38.5188 382.662C38.8188 382.446 39.1548 382.284 39.5268 382.176C39.9108 382.068 40.3008 381.978 40.6968 381.906C41.1168 381.822 41.5128 381.762 41.8848 381.726C42.2688 381.678 42.6048 381.618 42.8928 381.546C43.1808 381.462 43.4088 381.348 43.5768 381.204C43.7448 381.048 43.8288 380.826 43.8288 380.538C43.8288 380.202 43.7628 379.932 43.6308 379.728C43.5108 379.524 43.3488 379.368 43.1448 379.26C42.9528 379.152 42.7308 379.08 42.4788 379.044C42.2388 379.008 41.9988 378.99 41.7588 378.99C41.1108 378.99 40.5708 379.116 40.1388 379.368C39.7068 379.608 39.4728 380.07 39.4368 380.754H37.9068C37.9308 380.178 38.0508 379.692 38.2668 379.296C38.4828 378.9 38.7708 378.582 39.1308 378.342C39.4908 378.09 39.8988 377.91 40.3548 377.802C40.8228 377.694 41.3208 377.64 41.8488 377.64C42.2688 377.64 42.6828 377.67 43.0908 377.73C43.5108 377.79 43.8888 377.916 44.2248 378.108C44.5608 378.288 44.8308 378.546 45.0348 378.882C45.2388 379.218 45.3408 379.656 45.3408 380.196V384.984C45.3408 385.344 45.3588 385.608 45.3948 385.776C45.4428 385.944 45.5868 386.028 45.8268 386.028C45.9348 386.028 46.0908 385.998 46.2948 385.938V387.126C46.0308 387.282 45.6648 387.36 45.1968 387.36C44.8008 387.36 44.4828 387.252 44.2428 387.036C44.0148 386.808 43.9008 386.442 43.9008 385.938C43.4808 386.442 42.9888 386.808 42.4248 387.036C41.8728 387.252 41.2728 387.36 40.6248 387.36ZM40.9668 386.028C41.4708 386.028 41.9028 385.962 42.2628 385.83C42.6228 385.686 42.9168 385.512 43.1448 385.308C43.3728 385.092 43.5408 384.864 43.6488 384.624C43.7568 384.372 43.8108 384.138 43.8108 383.922V382.356C43.6188 382.512 43.3668 382.62 43.0548 382.68C42.7428 382.74 42.4128 382.794 42.0648 382.842C41.7288 382.89 41.3868 382.938 41.0388 382.986C40.6908 383.034 40.3788 383.118 40.1028 383.238C39.8268 383.358 39.5988 383.532 39.4188 383.76C39.2508 383.976 39.1668 384.276 39.1668 384.66C39.1668 384.912 39.2148 385.128 39.3108 385.308C39.4188 385.476 39.5508 385.614 39.7068 385.722C39.8748 385.83 40.0668 385.908 40.2828 385.956C40.4988 386.004 40.7268 386.028 40.9668 386.028ZM47.9527 377.856H49.4827V379.116H49.5187C49.7707 378.6 50.1667 378.228 50.7067 378C51.2467 377.76 51.8407 377.64 52.4887 377.64C53.2087 377.64 53.8327 377.772 54.3607 378.036C54.9007 378.3 55.3447 378.66 55.6927 379.116C56.0527 379.56 56.3227 380.076 56.5027 380.664C56.6827 381.252 56.7727 381.876 56.7727 382.536C56.7727 383.208 56.6827 383.838 56.5027 384.426C56.3347 385.002 56.0707 385.512 55.7107 385.956C55.3627 386.388 54.9187 386.73 54.3787 386.982C53.8507 387.234 53.2327 387.36 52.5247 387.36C52.2847 387.36 52.0267 387.336 51.7507 387.288C51.4747 387.24 51.1987 387.162 50.9227 387.054C50.6467 386.946 50.3827 386.802 50.1307 386.622C49.8907 386.43 49.6867 386.196 49.5187 385.92H49.4827V390.708H47.9527V377.856ZM52.3627 386.028C52.8787 386.028 53.3167 385.926 53.6767 385.722C54.0367 385.518 54.3247 385.248 54.5407 384.912C54.7567 384.576 54.9127 384.192 55.0087 383.76C55.1047 383.328 55.1527 382.884 55.1527 382.428C55.1527 381.996 55.0927 381.576 54.9727 381.168C54.8647 380.748 54.6907 380.376 54.4507 380.052C54.2227 379.728 53.9227 379.47 53.5507 379.278C53.1907 379.086 52.7647 378.99 52.2727 378.99C51.7567 378.99 51.3187 379.092 50.9587 379.296C50.5987 379.5 50.3047 379.77 50.0767 380.106C49.8487 380.43 49.6807 380.802 49.5727 381.222C49.4767 381.642 49.4287 382.068 49.4287 382.5C49.4287 382.956 49.4827 383.4 49.5907 383.832C49.6987 384.252 49.8667 384.624 50.0947 384.948C50.3347 385.272 50.6407 385.536 51.0127 385.74C51.3847 385.932 51.8347 386.028 52.3627 386.028ZM58.8027 377.856H60.3327V379.116H60.3687C60.6207 378.6 61.0167 378.228 61.5567 378C62.0967 377.76 62.6907 377.64 63.3387 377.64C64.0587 377.64 64.6827 377.772 65.2107 378.036C65.7507 378.3 66.1947 378.66 66.5427 379.116C66.9027 379.56 67.1727 380.076 67.3527 380.664C67.5327 381.252 67.6227 381.876 67.6227 382.536C67.6227 383.208 67.5327 383.838 67.3527 384.426C67.1847 385.002 66.9207 385.512 66.5607 385.956C66.2127 386.388 65.7687 386.73 65.2287 386.982C64.7007 387.234 64.0827 387.36 63.3747 387.36C63.1347 387.36 62.8767 387.336 62.6007 387.288C62.3247 387.24 62.0487 387.162 61.7727 387.054C61.4967 386.946 61.2327 386.802 60.9807 386.622C60.7407 386.43 60.5367 386.196 60.3687 385.92H60.3327V390.708H58.8027V377.856ZM63.2127 386.028C63.7287 386.028 64.1667 385.926 64.5267 385.722C64.8867 385.518 65.1747 385.248 65.3907 384.912C65.6067 384.576 65.7627 384.192 65.8587 383.76C65.9547 383.328 66.0027 382.884 66.0027 382.428C66.0027 381.996 65.9427 381.576 65.8227 381.168C65.7147 380.748 65.5407 380.376 65.3007 380.052C65.0727 379.728 64.7727 379.47 64.4007 379.278C64.0407 379.086 63.6147 378.99 63.1227 378.99C62.6067 378.99 62.1687 379.092 61.8087 379.296C61.4487 379.5 61.1547 379.77 60.9267 380.106C60.6987 380.43 60.5307 380.802 60.4227 381.222C60.3267 381.642 60.2787 382.068 60.2787 382.5C60.2787 382.956 60.3327 383.4 60.4407 383.832C60.5487 384.252 60.7167 384.624 60.9447 384.948C61.1847 385.272 61.4907 385.536 61.8627 385.74C62.2347 385.932 62.6847 386.028 63.2127 386.028ZM69.5986 377.856H71.1286V385.452L75.5206 377.856H77.4826V387.162H75.9526V379.566L71.5606 387.162H69.5986V377.856ZM79.9739 377.856H81.5039V382.302L85.7699 377.856H87.8039L83.6819 381.888L88.2899 387.162H86.3279L82.4399 382.734L81.5039 383.652V387.162H79.9739V377.856ZM92.2025 387.36C91.7825 387.36 91.3865 387.312 91.0145 387.216C90.6425 387.132 90.3125 386.988 90.0245 386.784C89.7485 386.568 89.5265 386.298 89.3585 385.974C89.2025 385.638 89.1245 385.236 89.1245 384.768C89.1245 384.24 89.2145 383.808 89.3945 383.472C89.5745 383.136 89.8085 382.866 90.0965 382.662C90.3965 382.446 90.7325 382.284 91.1045 382.176C91.4885 382.068 91.8785 381.978 92.2745 381.906C92.6945 381.822 93.0905 381.762 93.4625 381.726C93.8465 381.678 94.1825 381.618 94.4705 381.546C94.7585 381.462 94.9865 381.348 95.1545 381.204C95.3225 381.048 95.4065 380.826 95.4065 380.538C95.4065 380.202 95.3405 379.932 95.2085 379.728C95.0885 379.524 94.9265 379.368 94.7225 379.26C94.5305 379.152 94.3085 379.08 94.0565 379.044C93.8165 379.008 93.5765 378.99 93.3365 378.99C92.6885 378.99 92.1485 379.116 91.7165 379.368C91.2845 379.608 91.0505 380.07 91.0145 380.754H89.4845C89.5085 380.178 89.6285 379.692 89.8445 379.296C90.0605 378.9 90.3485 378.582 90.7085 378.342C91.0685 378.09 91.4765 377.91 91.9325 377.802C92.4005 377.694 92.8985 377.64 93.4265 377.64C93.8465 377.64 94.2605 377.67 94.6685 377.73C95.0885 377.79 95.4665 377.916 95.8025 378.108C96.1385 378.288 96.4085 378.546 96.6125 378.882C96.8165 379.218 96.9185 379.656 96.9185 380.196V384.984C96.9185 385.344 96.9365 385.608 96.9725 385.776C97.0205 385.944 97.1645 386.028 97.4045 386.028C97.5125 386.028 97.6685 385.998 97.8725 385.938V387.126C97.6085 387.282 97.2425 387.36 96.7745 387.36C96.3785 387.36 96.0605 387.252 95.8205 387.036C95.5925 386.808 95.4785 386.442 95.4785 385.938C95.0585 386.442 94.5665 386.808 94.0025 387.036C93.4505 387.252 92.8505 387.36 92.2025 387.36ZM92.5445 386.028C93.0485 386.028 93.4805 385.962 93.8405 385.83C94.2005 385.686 94.4945 385.512 94.7225 385.308C94.9505 385.092 95.1185 384.864 95.2265 384.624C95.3345 384.372 95.3885 384.138 95.3885 383.922V382.356C95.1965 382.512 94.9445 382.62 94.6325 382.68C94.3205 382.74 93.9905 382.794 93.6425 382.842C93.3065 382.89 92.9645 382.938 92.6165 382.986C92.2685 383.034 91.9565 383.118 91.6805 383.238C91.4045 383.358 91.1765 383.532 90.9965 383.76C90.8285 383.976 90.7445 384.276 90.7445 384.66C90.7445 384.912 90.7925 385.128 90.8885 385.308C90.9965 385.476 91.1285 385.614 91.2845 385.722C91.4525 385.83 91.6445 385.908 91.8605 385.956C92.0765 386.004 92.3045 386.028 92.5445 386.028ZM98.3785 385.812H99.4765C99.6085 385.56 99.7405 385.218 99.8725 384.786C100.016 384.342 100.142 383.856 100.25 383.328C100.37 382.788 100.466 382.218 100.538 381.618C100.61 381.018 100.646 380.43 100.646 379.854V377.856H107.378V385.812H108.638V389.988H107.18V387.162H99.8365V389.988H98.3785V385.812ZM105.848 385.812V379.206H102.14V379.998C102.14 380.586 102.104 381.174 102.032 381.762C101.972 382.338 101.888 382.884 101.78 383.4C101.672 383.916 101.552 384.384 101.42 384.804C101.3 385.224 101.18 385.56 101.06 385.812H105.848ZM110.256 377.856H111.786V381.564H116.502V377.856H118.032V387.162H116.502V382.878H111.786V387.162H110.256V377.856ZM123.082 387.36C122.662 387.36 122.266 387.312 121.894 387.216C121.522 387.132 121.192 386.988 120.904 386.784C120.628 386.568 120.406 386.298 120.238 385.974C120.082 385.638 120.004 385.236 120.004 384.768C120.004 384.24 120.094 383.808 120.274 383.472C120.454 383.136 120.688 382.866 120.976 382.662C121.276 382.446 121.612 382.284 121.984 382.176C122.368 382.068 122.758 381.978 123.154 381.906C123.574 381.822 123.97 381.762 124.342 381.726C124.726 381.678 125.062 381.618 125.35 381.546C125.638 381.462 125.866 381.348 126.034 381.204C126.202 381.048 126.286 380.826 126.286 380.538C126.286 380.202 126.22 379.932 126.088 379.728C125.968 379.524 125.806 379.368 125.602 379.26C125.41 379.152 125.188 379.08 124.936 379.044C124.696 379.008 124.456 378.99 124.216 378.99C123.568 378.99 123.028 379.116 122.596 379.368C122.164 379.608 121.93 380.07 121.894 380.754H120.364C120.388 380.178 120.508 379.692 120.724 379.296C120.94 378.9 121.228 378.582 121.588 378.342C121.948 378.09 122.356 377.91 122.812 377.802C123.28 377.694 123.778 377.64 124.306 377.64C124.726 377.64 125.14 377.67 125.548 377.73C125.968 377.79 126.346 377.916 126.682 378.108C127.018 378.288 127.288 378.546 127.492 378.882C127.696 379.218 127.798 379.656 127.798 380.196V384.984C127.798 385.344 127.816 385.608 127.852 385.776C127.9 385.944 128.044 386.028 128.284 386.028C128.392 386.028 128.548 385.998 128.752 385.938V387.126C128.488 387.282 128.122 387.36 127.654 387.36C127.258 387.36 126.94 387.252 126.7 387.036C126.472 386.808 126.358 386.442 126.358 385.938C125.938 386.442 125.446 386.808 124.882 387.036C124.33 387.252 123.73 387.36 123.082 387.36ZM123.424 386.028C123.928 386.028 124.36 385.962 124.72 385.83C125.08 385.686 125.374 385.512 125.602 385.308C125.83 385.092 125.998 384.864 126.106 384.624C126.214 384.372 126.268 384.138 126.268 383.922V382.356C126.076 382.512 125.824 382.62 125.512 382.68C125.2 382.74 124.87 382.794 124.522 382.842C124.186 382.89 123.844 382.938 123.496 382.986C123.148 383.034 122.836 383.118 122.56 383.238C122.284 383.358 122.056 383.532 121.876 383.76C121.708 383.976 121.624 384.276 121.624 384.66C121.624 384.912 121.672 385.128 121.768 385.308C121.876 385.476 122.008 385.614 122.164 385.722C122.332 385.83 122.524 385.908 122.74 385.956C122.956 386.004 123.184 386.028 123.424 386.028ZM132.318 383.526C131.658 383.43 131.118 383.13 130.698 382.626C130.278 382.122 130.068 381.486 130.068 380.718C130.068 379.842 130.326 379.146 130.842 378.63C131.37 378.114 132.084 377.856 132.984 377.856H137.7V387.162H136.17V383.58H134.136L131.292 387.162H129.258L132.318 383.526ZM136.17 382.266V379.206H133.47C132.822 379.206 132.354 379.344 132.066 379.62C131.778 379.896 131.634 380.268 131.634 380.736C131.634 381.216 131.778 381.594 132.066 381.87C132.354 382.134 132.822 382.266 133.47 382.266H136.17Z" fill="#ABA3AD"/>
<path d="M253.903 307.999H263.911V320.851H262.201V309.439H255.613V320.851H253.903V307.999ZM269.219 321.049C268.799 321.049 268.403 321.001 268.031 320.905C267.659 320.821 267.329 320.677 267.041 320.473C266.765 320.257 266.543 319.987 266.375 319.663C266.219 319.327 266.141 318.925 266.141 318.457C266.141 317.929 266.231 317.497 266.411 317.161C266.591 316.825 266.825 316.555 267.113 316.351C267.413 316.135 267.749 315.973 268.121 315.865C268.505 315.757 268.895 315.667 269.291 315.595C269.711 315.511 270.107 315.451 270.479 315.415C270.863 315.367 271.199 315.307 271.487 315.235C271.775 315.151 272.003 315.037 272.171 314.893C272.339 314.737 272.423 314.515 272.423 314.227C272.423 313.891 272.357 313.621 272.225 313.417C272.105 313.213 271.943 313.057 271.739 312.949C271.547 312.841 271.325 312.769 271.073 312.733C270.833 312.697 270.593 312.679 270.353 312.679C269.705 312.679 269.165 312.805 268.733 313.057C268.301 313.297 268.067 313.759 268.031 314.443H266.501C266.525 313.867 266.645 313.381 266.861 312.985C267.077 312.589 267.365 312.271 267.725 312.031C268.085 311.779 268.493 311.599 268.949 311.491C269.417 311.383 269.915 311.329 270.443 311.329C270.863 311.329 271.277 311.359 271.685 311.419C272.105 311.479 272.483 311.605 272.819 311.797C273.155 311.977 273.425 312.235 273.629 312.571C273.833 312.907 273.935 313.345 273.935 313.885V318.673C273.935 319.033 273.953 319.297 273.989 319.465C274.037 319.633 274.181 319.717 274.421 319.717C274.529 319.717 274.685 319.687 274.889 319.627V320.815C274.625 320.971 274.259 321.049 273.791 321.049C273.395 321.049 273.077 320.941 272.837 320.725C272.609 320.497 272.495 320.131 272.495 319.627C272.075 320.131 271.583 320.497 271.019 320.725C270.467 320.941 269.867 321.049 269.219 321.049ZM269.561 319.717C270.065 319.717 270.497 319.651 270.857 319.519C271.217 319.375 271.511 319.201 271.739 318.997C271.967 318.781 272.135 318.553 272.243 318.313C272.351 318.061 272.405 317.827 272.405 317.611V316.045C272.213 316.201 271.961 316.309 271.649 316.369C271.337 316.429 271.007 316.483 270.659 316.531C270.323 316.579 269.981 316.627 269.633 316.675C269.285 316.723 268.973 316.807 268.697 316.927C268.421 317.047 268.193 317.221 268.013 317.449C267.845 317.665 267.761 317.965 267.761 318.349C267.761 318.601 267.809 318.817 267.905 318.997C268.013 319.165 268.145 319.303 268.301 319.411C268.469 319.519 268.661 319.597 268.877 319.645C269.093 319.693 269.321 319.717 269.561 319.717ZM278.743 312.895H275.413V311.545H283.603V312.895H280.273V320.851H278.743V312.895ZM285.059 311.545H286.589V312.805H286.625C286.877 312.289 287.273 311.917 287.813 311.689C288.353 311.449 288.947 311.329 289.595 311.329C290.315 311.329 290.939 311.461 291.467 311.725C292.007 311.989 292.451 312.349 292.799 312.805C293.159 313.249 293.429 313.765 293.609 314.353C293.789 314.941 293.879 315.565 293.879 316.225C293.879 316.897 293.789 317.527 293.609 318.115C293.441 318.691 293.177 319.201 292.817 319.645C292.469 320.077 292.025 320.419 291.485 320.671C290.957 320.923 290.339 321.049 289.631 321.049C289.391 321.049 289.133 321.025 288.857 320.977C288.581 320.929 288.305 320.851 288.029 320.743C287.753 320.635 287.489 320.491 287.237 320.311C286.997 320.119 286.793 319.885 286.625 319.609H286.589V324.397H285.059V311.545ZM289.469 319.717C289.985 319.717 290.423 319.615 290.783 319.411C291.143 319.207 291.431 318.937 291.647 318.601C291.863 318.265 292.019 317.881 292.115 317.449C292.211 317.017 292.259 316.573 292.259 316.117C292.259 315.685 292.199 315.265 292.079 314.857C291.971 314.437 291.797 314.065 291.557 313.741C291.329 313.417 291.029 313.159 290.657 312.967C290.297 312.775 289.871 312.679 289.379 312.679C288.863 312.679 288.425 312.781 288.065 312.985C287.705 313.189 287.411 313.459 287.183 313.795C286.955 314.119 286.787 314.491 286.679 314.911C286.583 315.331 286.535 315.757 286.535 316.189C286.535 316.645 286.589 317.089 286.697 317.521C286.805 317.941 286.973 318.313 287.201 318.637C287.441 318.961 287.747 319.225 288.119 319.429C288.491 319.621 288.941 319.717 289.469 319.717ZM295.855 311.545H297.385V319.141L301.777 311.545H303.739V320.851H302.209V313.255L297.817 320.851H295.855V311.545ZM306.231 311.545H307.761V315.991L312.027 311.545H314.061L309.939 315.577L314.547 320.851H312.585L308.697 316.423L307.761 317.341V320.851H306.231V311.545ZM315.885 311.545H317.415V319.141L321.807 311.545H323.769V320.851H322.239V313.255L317.847 320.851H315.885V311.545Z" fill="#ABA3AD"/>
<path d="M164.499 43.8506L230.999 116.5M262.499 150L382.499 277.851" stroke="#DFDCE0" stroke-width="5" stroke-linecap="round"/>
<path d="M83.835 429.346C88.7544 420.229 93.8633 411.228 99.1562 402.351M206.211 263.887C175.456 295.074 147.503 329.031 122.76 365.351M247.605 225.052C273.525 202.564 301.055 181.883 329.999 163.205" stroke="#DFDCE0" stroke-width="5" stroke-linecap="round"/>
<path d="M183.915 330.384L213.055 308.278C214.95 306.84 217.644 307.163 219.145 309.009L251.312 348.559C252.915 350.53 252.527 353.443 250.465 354.926L218.187 378.125C216.204 379.55 213.441 379.094 212.022 377.107L182.991 336.464C181.603 334.521 182.013 331.827 183.915 330.384Z" fill="#DFDCE0"/>
<path d="M235.705 67.6461C152.354 80.6462 73.0517 112.45 3.99967 160.164" stroke="#DFDCE0" stroke-width="5" stroke-linecap="round"/>
<path d="M193.499 159.651C187.313 159.651 182.299 164.665 182.299 170.851C182.299 176.491 186.474 181.144 191.899 181.923V196.451C191.896 196.663 191.935 196.873 192.014 197.07C192.093 197.267 192.211 197.446 192.359 197.597C192.508 197.748 192.686 197.868 192.881 197.949C193.077 198.031 193.287 198.073 193.499 198.073C193.711 198.073 193.921 198.031 194.116 197.949C194.312 197.868 194.489 197.748 194.638 197.597C194.787 197.446 194.905 197.267 194.984 197.07C195.063 196.873 195.102 196.663 195.099 196.451V181.923C200.524 181.144 204.699 176.491 204.699 170.851C204.699 164.665 199.684 159.651 193.499 159.651ZM193.499 162.851C195.488 162.851 197.099 163.926 197.099 165.251C197.099 166.575 195.488 167.651 193.499 167.651C191.51 167.651 189.899 166.575 189.899 165.251C189.899 163.926 191.51 162.851 193.499 162.851Z" fill="#0D0D0D"/>
</svg>
