<?xml version="1.0" standalone="no"?>
<!DOCTYPE svg PUBLIC "-//W3C//DTD SVG 20010904//EN"
 "http://www.w3.org/TR/2001/REC-SVG-20010904/DTD/svg10.dtd">
<svg version="1.0" xmlns="http://www.w3.org/2000/svg"
 width="700.000000pt" height="700.000000pt" viewBox="0 0 700.000000 700.000000"
 preserveAspectRatio="xMidYMid meet">
<metadata>
Created by potrace 1.11, written by Peter Selinger 2001-2013
</metadata>
<g transform="translate(0.000000,700.000000) scale(0.100000,-0.100000)"
fill="#000000" stroke="none">
<path d="M2965 6960 c-22 -4 -60 -11 -85 -14 -49 -7 -62 -9 -100 -19 -14 -4
-65 -16 -115 -28 -280 -66 -649 -212 -890 -354 -33 -19 -68 -38 -77 -41 -10
-4 -18 -10 -18 -15 0 -5 -5 -9 -10 -9 -35 0 -386 -261 -524 -390 -460 -426
-776 -914 -970 -1492 -31 -94 -79 -267 -91 -329 -3 -13 -11 -58 -20 -99 -29
-147 -36 -199 -52 -370 -15 -164 -8 -592 12 -711 2 -13 6 -46 9 -74 9 -78 23
-156 51 -285 23 -107 88 -333 114 -395 5 -11 30 -75 55 -142 54 -140 181 -394
249 -501 26 -40 47 -76 47 -81 0 -5 3 -11 8 -13 4 -2 33 -41 64 -88 188 -282
514 -619 798 -825 30 -22 57 -43 58 -47 2 -5 8 -8 12 -8 5 0 56 -31 114 -70
57 -38 108 -70 112 -70 4 0 15 -6 23 -14 29 -25 304 -161 431 -213 165 -67
425 -150 563 -179 151 -32 245 -47 296 -48 l34 -1 0 323 c0 178 -3 325 -5 328
-4 4 -73 18 -179 37 -37 7 -170 44 -264 74 -491 157 -953 472 -1300 885 -145
173 -312 436 -398 628 -14 30 -34 77 -46 103 -71 159 -163 503 -190 712 -53
409 -19 811 101 1210 221 733 752 1361 1447 1710 205 102 507 208 686 239 86
15 139 27 143 31 4 4 6 591 3 643 -1 13 -34 14 -96 2z"/>
<path d="M3939 6964 c-3 -38 -1 -645 2 -648 2 -3 63 -16 134 -31 918 -189
1698 -834 2050 -1695 26 -63 51 -124 56 -135 48 -116 122 -434 143 -615 23
-201 24 -551 1 -668 -2 -10 -6 -43 -10 -72 -4 -29 -9 -62 -11 -74 -2 -12 -7
-37 -10 -56 -55 -324 -205 -696 -407 -1014 -139 -221 -373 -482 -587 -656 -30
-25 -60 -50 -68 -57 -7 -7 -26 -20 -42 -30 -17 -9 -30 -21 -30 -25 0 -4 -5 -8
-12 -8 -6 0 -21 -8 -32 -19 -42 -37 -225 -144 -361 -211 -240 -118 -484 -199
-735 -245 -73 -13 -80 -17 -81 -38 -1 -29 -1 -563 0 -605 l1 -34 53 8 c28 4
61 8 72 9 194 25 554 129 800 233 123 51 367 174 404 203 13 10 28 19 33 19 5
0 14 5 21 10 7 6 64 44 127 86 241 160 474 363 659 573 31 35 63 71 71 80 74
79 247 324 342 486 172 293 331 694 394 1000 16 79 54 301 59 350 4 33 9 71
11 85 9 46 11 524 4 605 -15 153 -21 210 -25 225 -2 8 -7 35 -10 60 -16 123
-79 381 -131 536 -192 575 -518 1078 -965 1489 -349 321 -796 585 -1247 735
-163 54 -405 114 -547 135 -90 13 -125 16 -126 9z"/>
</g>
</svg>
